<?xml version="1.0" encoding="UTF-8" standalone="no"?>
<svg
   xmlns:dc="http://purl.org/dc/elements/1.1/"
   xmlns:cc="http://creativecommons.org/ns#"
   xmlns:rdf="http://www.w3.org/1999/02/22-rdf-syntax-ns#"
   xmlns:svg="http://www.w3.org/2000/svg"
   xmlns="http://www.w3.org/2000/svg"
   viewBox="0 0 816 1056"
   height="1056"
   width="816"
   xml:space="preserve"
   id="svg2"
   version="1.1"><metadata
     id="metadata8"><rdf:RDF><cc:Work
         rdf:about=""><dc:format>image/svg+xml</dc:format><dc:type
           rdf:resource="http://purl.org/dc/dcmitype/StillImage" /></cc:Work></rdf:RDF></metadata><defs
     id="defs6"><clipPath
       id="clipPath18"
       clipPathUnits="userSpaceOnUse"><path
         id="path16"
         d="M 0,792 H 612 V 0 H 0 Z" /></clipPath></defs><g
     transform="matrix(1.3333333,0,0,-1.3333333,0,1056)"
     id="g10"><g
       id="g12"><g
         clip-path="url(#clipPath18)"
         id="g14"><g
           transform="translate(215.1792,489.8403)"
           id="g20"><path
             id="path22"
             style="fill:#ffffff;fill-opacity:1;fill-rule:nonzero;stroke:none"
             d="M 0,0 C 17.266,0.522 23.31,13.834 23.31,44.926 23.31,78.327 15.31,87.049 0,87.425 -15.31,87.049 -23.31,78.327 -23.31,44.926 -23.31,13.834 -17.267,0.522 0,0" /></g><g
           transform="translate(420.4434,365.3867)"
           id="g24"><path
             id="path26"
             style="fill:#ffffff;fill-opacity:1;fill-rule:nonzero;stroke:none"
             d="m 0,0 v 184.023 c 0,20.134 -11.671,27.889 -25.217,28.21 -13.546,-0.321 -25.217,-8.076 -25.217,-28.21 V 0 c 0,-20.135 11.671,-27.891 25.217,-28.211 C -11.671,-27.891 0,-20.135 0,0" /></g><g
           transform="translate(215.1792,337.8311)"
           id="g28"><path
             id="path30"
             style="fill:#ffffff;fill-opacity:1;fill-rule:nonzero;stroke:none"
             d="M 0,0 C 19.113,0.573 28.529,16.647 28.529,52.592 28.529,85.193 21.776,104.945 0,105.559 -21.777,104.945 -28.53,85.193 -28.53,52.592 -28.53,16.647 -19.113,0.573 0,0" /></g><g
           transform="translate(494.2334,242.9238)"
           id="g32"><path
             id="path34"
             style="fill:#ffffff;fill-opacity:1;fill-rule:nonzero;stroke:none"
             d="M 0,0 H -2.878 V 12.074 L -5.923,0 h -2.981 l -3.034,12.074 V 0 h -2.878 v 15.339 h 4.635 L -7.397,4.876 -4.646,15.339 H 0 Z m -16.772,12.744 h -4.541 V 0 h -3.098 v 12.744 h -4.551 v 2.595 h 12.19 z m -46.894,-82.869 c -12.176,0 -27.136,3.838 -33.05,6.976 v 22.67 c 7.307,-5.581 21.57,-12.207 31.311,-12.207 5.915,0 13.917,2.441 13.917,6.975 0,4.533 -3.481,6.976 -10.439,8.72 -6.957,1.742 -12.872,1.393 -20.873,5.23 -8.002,3.836 -15.655,6.626 -15.655,22.67 0,16.042 12.176,26.156 36.528,26.156 12.873,0 26.789,-3.487 29.573,-5.231 v -22.669 c -5.567,4.185 -15.308,10.462 -27.833,10.462 -12.524,0 -13.916,-4.185 -13.916,-6.975 0,-2.79 1.74,-3.487 5.219,-5.231 3.479,-1.744 11.828,-1.744 22.613,-5.232 10.785,-3.488 19.134,-8.718 19.134,-24.413 0,-17.437 -14.262,-27.901 -36.529,-27.901 m -91.523,139.94 c -10.787,10.459 -20.528,30.681 -20.528,60.317 v 168.683 c 0,29.636 9.741,49.858 20.528,60.317 10.601,10.282 21.558,17.408 55.304,17.64 h 1.756 c 33.747,-0.232 44.703,-7.358 55.305,-17.64 10.787,-10.459 20.528,-30.681 20.528,-60.317 V 130.132 c 0,-29.636 -9.741,-49.858 -20.528,-60.317 C -53.426,59.534 -64.382,52.517 -98.129,52.284 h -1.756 c -33.746,0.233 -44.703,7.25 -55.304,17.531 m 42.818,-106.806 c 0,-21.181 -10.942,-31.698 -34.79,-32.991 h -5.218 c -23.85,1.293 -34.791,11.81 -34.791,32.991 v 52.312 h 24.354 v -52.312 c 0,-9.623 3.548,-14.809 13.046,-15.582 9.498,0.773 13.046,5.959 13.046,15.582 v 52.312 h 24.353 z m -85.235,-31.39 h -60.883 v 83.702 h 24.353 v -64.52 h 36.53 z m -106.109,27.902 h -12.177 v -27.902 h -24.352 v 83.702 h 36.529 c 18.787,0 31.311,-8.864 31.311,-24.412 0,-19.182 -9.066,-31.388 -31.311,-31.388 m -52.231,186.236 c 0,63.454 23.659,73.217 33.053,79.144 -8.698,8.368 -28.53,22.314 -28.53,65.547 0,48.195 16.648,85.378 71.323,86.313 h 2.09 c 54.676,-0.935 71.324,-38.118 71.324,-86.313 0,-43.233 -19.832,-57.179 -28.53,-65.547 9.394,-5.927 33.053,-15.69 33.053,-79.144 0,-62.59 -25.405,-92.703 -75.847,-93.51 h -2.198 c -50.441,0.807 -75.738,30.92 -75.738,93.51 m 328.898,277.618 h -320.238 c -30.244,0 -54.762,-24.518 -54.762,-54.762 V -62.339 c 0,-30.245 24.518,-54.762 54.762,-54.762 h 320.238 c 30.244,0 54.762,24.517 54.762,54.762 v 430.952 c 0,30.244 -24.518,54.762 -54.762,54.762" /></g><g
           transform="translate(183.5601,240.8076)"
           id="g36"><path
             id="path38"
             style="fill:#ffffff;fill-opacity:1;fill-rule:nonzero;stroke:none"
             d="M 0,0 H -5.218 V -20.925 H 0 c 10.46,0 13.548,1.85 13.883,10.462 C 13.548,-1.851 10.46,0 0,0" /></g><g
           transform="translate(554.0898,187.7275)"
           id="g40"><path
             id="path42"
             style="fill:#ffffff;fill-opacity:1;fill-rule:nonzero;stroke:none"
             d="m 0,0 c 0,-56.664 -33.849,-94.048 -89.285,-94.048 h -315.476 c -55.438,0 -89.286,37.384 -89.286,94.048 v 416.666 c 0,56.664 33.848,94.048 89.286,94.048 H -89.285 C -33.849,510.714 0,473.33 0,416.666 Z m -86.904,538.095 h -321.429 c -63.119,0 -114.286,-51.168 -114.286,-114.286 V -8.333 c 0,-63.118 51.167,-114.286 114.286,-114.286 h 321.429 c 63.118,0 114.285,51.168 114.285,114.286 v 432.142 c 0,63.118 -51.167,114.286 -114.285,114.286" /></g><g
           transform="translate(447.9629,225.1133)"
           id="g44"><path
             id="path46"
             style="fill:#000000;fill-opacity:1;fill-rule:nonzero;stroke:none"
             d="m 0,0 c -10.785,3.487 -19.135,3.487 -22.613,5.231 -3.48,1.745 -5.219,2.442 -5.219,5.232 0,2.79 1.392,6.974 13.916,6.974 12.524,0 22.266,-6.277 27.832,-10.461 v 22.669 c -2.783,1.744 -16.699,5.231 -29.572,5.231 -24.353,0 -36.529,-10.114 -36.529,-26.156 0,-16.044 7.654,-18.834 15.656,-22.67 8.001,-3.837 13.916,-3.488 20.873,-5.231 6.958,-1.744 10.438,-4.186 10.438,-8.719 0,-4.535 -8.002,-6.975 -13.917,-6.975 -9.741,0 -24.004,6.626 -31.31,12.206 v -22.67 c 5.914,-3.138 20.874,-6.975 33.049,-6.975 22.267,0 36.53,10.463 36.53,27.901 C 19.134,-8.719 10.784,-3.488 0,0" /></g><g
           transform="translate(465.2715,255.668)"
           id="g48"><path
             id="path50"
             style="fill:#000000;fill-opacity:1;fill-rule:nonzero;stroke:none"
             d="M 0,0 H 4.551 V -12.744 H 7.648 V 0 h 4.541 V 2.595 H 0 Z" /></g><g
           transform="translate(521.9473,180.585)"
           id="g52"><path
             id="path54"
             style="fill:#000000;fill-opacity:1;fill-rule:nonzero;stroke:none"
             d="M 0,0 C 0,-30.245 -24.518,-54.762 -54.762,-54.762 H -375 c -30.244,0 -54.762,24.517 -54.762,54.762 v 430.952 c 0,30.244 24.518,54.762 54.762,54.762 H -54.762 C -24.518,485.714 0,461.196 0,430.952 Z m -57.143,517.856 h -315.476 c -55.437,0 -89.286,-37.384 -89.286,-94.047 V 7.143 c 0,-56.664 33.849,-94.048 89.286,-94.048 h 315.476 c 55.437,0 89.286,37.384 89.286,94.048 v 416.666 c 0,56.663 -33.849,94.047 -89.286,94.047" /></g><g
           transform="translate(486.8359,247.7998)"
           id="g56"><path
             id="path58"
             style="fill:#000000;fill-opacity:1;fill-rule:nonzero;stroke:none"
             d="M 0,0 -2.783,10.463 H -7.419 V -4.876 h 2.878 V 7.198 L -1.507,-4.876 H 1.475 L 4.52,7.198 V -4.876 H 7.397 V 10.463 H 2.751 Z" /></g><g
           transform="translate(370.0098,365.3867)"
           id="g60"><path
             id="path62"
             style="fill:#000000;fill-opacity:1;fill-rule:nonzero;stroke:none"
             d="m 0,0 v 184.023 c 0,20.134 11.671,27.889 25.217,28.21 13.546,-0.321 25.217,-8.076 25.217,-28.21 V 0 c 0,-20.135 -11.671,-27.891 -25.217,-28.211 C 11.671,-27.891 0,-20.135 0,0 m 81.399,-52.647 c 10.788,10.459 20.529,30.68 20.529,60.316 v 168.684 c 0,29.635 -9.741,49.857 -20.529,60.316 -10.601,10.282 -21.557,17.408 -55.304,17.64 h -1.756 c -33.746,-0.232 -44.703,-7.358 -55.305,-17.64 -10.786,-10.459 -20.527,-30.681 -20.527,-60.316 V 7.669 c 0,-29.636 9.741,-49.857 20.527,-60.316 10.602,-10.282 21.559,-17.299 55.305,-17.532 h 1.756 c 33.747,0.233 44.703,7.25 55.304,17.532" /></g><g
           transform="translate(357.5098,205.9326)"
           id="g64"><path
             id="path66"
             style="fill:#000000;fill-opacity:1;fill-rule:nonzero;stroke:none"
             d="M 0,0 C 0,-9.623 -3.549,-14.809 -13.046,-15.582 -22.544,-14.809 -26.093,-9.623 -26.093,0 V 52.313 H -50.446 V 0 c 0,-21.181 10.941,-31.698 34.791,-32.991 h 5.217 C 13.411,-31.698 24.353,-21.181 24.353,0 V 52.313 H 0 Z" /></g><g
           transform="translate(183.5601,219.8828)"
           id="g68"><path
             id="path70"
             style="fill:#000000;fill-opacity:1;fill-rule:nonzero;stroke:none"
             d="M 0,0 H -5.218 V 20.925 H 0 c 10.46,0 13.548,-1.851 13.883,-10.463 C 13.548,1.85 10.46,0 0,0 M 6.958,38.362 H -29.571 V -45.34 h 24.353 v 27.902 H 6.958 c 22.246,0 31.311,12.206 31.311,31.388 0,15.548 -12.524,24.412 -31.311,24.412" /></g><g
           transform="translate(215.1792,443.3896)"
           id="g72"><path
             id="path74"
             style="fill:#000000;fill-opacity:1;fill-rule:nonzero;stroke:none"
             d="m 0,0 c 21.776,-0.614 28.529,-20.366 28.529,-52.967 0,-35.944 -9.416,-52.018 -28.529,-52.592 -19.113,0.574 -28.53,16.648 -28.53,52.592 0,32.601 6.753,52.353 28.53,52.967 M 0,133.875 C 15.31,133.5 23.31,124.778 23.31,91.376 23.31,60.285 17.266,46.973 0,46.451 c -17.267,0.522 -23.31,13.834 -23.31,44.925 0,33.402 8,42.124 23.31,42.499 m -1.154,-282.094 h 2.198 c 50.442,0.807 75.848,30.92 75.848,93.51 0,63.455 -23.66,73.217 -33.054,79.144 8.699,8.368 28.531,22.314 28.531,65.547 0,48.195 -16.649,85.378 -71.325,86.313 h -2.089 c -54.676,-0.935 -71.324,-38.118 -71.324,-86.313 0,-43.233 19.832,-57.179 28.53,-65.547 -9.394,-5.927 -33.053,-15.689 -33.053,-79.144 0,-62.59 25.297,-92.703 75.738,-93.51" /></g><g
           transform="translate(260.0977,258.2451)"
           id="g76"><path
             id="path78"
             style="fill:#000000;fill-opacity:1;fill-rule:nonzero;stroke:none"
             d="m 0,0 h -24.353 v -83.702 h 60.882 v 19.181 H 0 Z" /></g></g></g></g></svg>