<?xml version="1.0" encoding="UTF-8" standalone="no"?>
<svg xmlns="http://www.w3.org/2000/svg" xml:space="preserve" width="816" height="1056">
  <defs>
    <clipPath id="a" clipPathUnits="userSpaceOnUse">
      <path d="M0 792h612V0H0Z"/>
    </clipPath>
  </defs>
  <g clip-path="url(#a)" transform="matrix(1.33333 0 0 -1.33333 0 1056)">
    <path fill="#e1b646" d="M483.876 284.5176c0 .929-.282 1.591-.849 1.988-.566.399-1.461.598-2.684.598h-1.913v-5.218h2.31c1.04 0 1.824.219 2.349.658.525.438.787 1.096.787 1.974m-301.0127-4.375h-5.223v-20.913h5.223c10.468 0 13.559 1.849 13.894 10.457-.335 8.606-3.426 10.456-13.894 10.456m31.6426 248.896c17.28.522 23.329 13.828 23.329 44.901 0 33.384-8.007 42.1-23.329 42.475-15.321-.375-23.328-9.091-23.328-42.475 0-31.073 6.049-44.379 23.328-44.901m0-151.9253c19.128.572 28.551 16.639 28.551 52.563 0 32.583-6.757 52.324-28.551 52.937-21.793-.613-28.551-20.354-28.551-52.937 0-35.924 9.424-51.991 28.551-52.563m205.4218 27.539v183.923c0 20.123-11.68 27.874-25.235 28.194-13.557-.32-25.237-8.071-25.237-28.194v-183.923c0-20.122 11.68-27.874 25.237-28.194 13.555.32 25.235 8.072 25.235 28.194"/>
    <path fill="#e1b646" d="M489.7832 272.3389c-2.418-2.407-5.346-3.611-8.782-3.611-3.469 0-6.407 1.204-8.815 3.611-2.407 2.406-3.611 5.329-3.611 8.767 0 3.437 1.209 6.36 3.627 8.766 2.418 2.407 5.355 3.613 8.813 3.613 3.427 0 6.35-1.206 8.768-3.613 2.418-2.406 3.627-5.329 3.627-8.766 0-3.438-1.209-6.361-3.627-8.767m-59.724-60.167c-12.185 0-27.156 3.835-33.076 6.972v22.657c7.313-5.578 21.587-12.2 31.335-12.2 5.92 0 13.927 2.44 13.927 6.971 0 4.532-3.482 6.971-10.445 8.714-6.962 1.743-12.882 1.395-20.889 5.229-8.008 3.834-15.668 6.623-15.668 22.656 0 16.034 12.186 26.144 36.557 26.144 12.882 0 26.809-3.487 29.594-5.229v-22.657c-5.57 4.182-15.319 10.457-27.852 10.457-12.534 0-13.928-4.183-13.928-6.971 0-2.789 1.742-3.486 5.224-5.228 3.48-1.744 11.837-1.744 22.63-5.229 10.794-3.486 19.149-8.715 19.149-24.4 0-17.429-14.275-27.886-36.558-27.886m-91.593 139.862c-10.794 10.454-20.543 30.665-20.543 60.285v168.59c0 29.619 9.749 49.83 20.543 60.284 10.611 10.276 21.574 17.398 55.347 17.63h1.757c33.773-.232 44.736-7.354 55.348-17.63 10.794-10.454 20.544-30.665 20.544-60.284v-168.59c0-29.62-9.75-49.831-20.544-60.285-10.612-10.275-21.575-17.288-55.348-17.519h-1.757c-33.773.231-44.736 7.244-55.347 17.519m42.85-106.748c0-21.167-10.948-31.68-34.816-32.971h-5.222c-23.868 1.291-34.817 11.804-34.817 32.971v52.284h24.372v-52.284c0-9.617 3.551-14.8 13.056-15.572 9.505.772 13.056 5.955 13.056 15.572v52.284h24.371zm-85.3-31.371h-60.928v83.655h24.371v-64.484h36.557zm-106.19 27.886h-12.186v-27.886h-24.371v83.655h36.557c18.801 0 31.335-8.858 31.335-24.399 0-19.171-9.072-31.37-31.335-31.37m-47.744 330.745c0 48.168 16.661 85.331 71.378 86.266h2.092c54.717-.935 71.378-38.098 71.378-86.266 0-43.209-19.847-57.148-28.552-65.511 9.401-5.924 33.079-15.681 33.079-79.101 0-62.554-25.426-92.651-75.905-93.458h-2.201c-50.479.807-75.796 30.904-75.796 93.458 0 63.42 23.678 73.177 33.079 79.101-8.705 8.363-28.552 22.302-28.552 65.511m310.62 128.421h-292.477c-48.056 0-67.897-24.131-67.897-74.855v-431.727h428.271v431.727c0 50.724-19.841 74.855-67.897 74.855"/>
    <path fill="#e1b646" d="m484.2129 273.3945-1.652 3.778c-.409.918-.837 1.608-1.286 2.067-.449.459-.923.688-1.422.688h-1.423v-6.533h-2.342v15.697h4.53c1.816 0 3.234-.377 4.253-1.132 1.021-.754 1.53-1.81 1.53-3.167 0-1.081-.347-1.999-1.041-2.754-.693-.754-1.667-1.259-2.92-1.514.437-.123.876-.426 1.315-.911.437-.485.861-1.155 1.27-2.012l2.035-4.207Zm-3.212 18.589c-3.01 0-5.575-1.056-7.697-3.167-2.122-2.111-3.183-4.682-3.183-7.711s1.061-5.598 3.183-7.704c2.122-2.107 4.687-3.159 7.697-3.159 3.019 0 5.584 1.055 7.696 3.167s3.167 4.676 3.167 7.696c0 3.019-1.058 5.587-3.174 7.704-2.118 2.116-4.68 3.174-7.689 3.174"/>
    <path fill="#e1b646" d="M553.6768 154.3467c0-56.633-36.79-100.969-92.271-100.969h-309.885c-55.48 0-92.27 44.336-92.27 100.969v482.21c0 56.632 36.79 100.968 92.27 100.968h309.885c55.481 0 92.271-44.336 92.271-100.968Zm-82.404 612.882h-329.617c-60.857 0-110.192-49.335-110.192-110.192v-523.171c0-60.858 49.335-110.192 110.192-110.192h329.617c60.857 0 110.191 49.334 110.191 110.192v523.171c0 60.857-49.334 110.192-110.191 110.192"/>
    <path d="M488.6973 273.4092c-2.112-2.111-4.678-3.167-7.696-3.167-3.01 0-5.575 1.053-7.698 3.159-2.122 2.107-3.182 4.675-3.182 7.704 0 3.03 1.06 5.6 3.182 7.711 2.123 2.112 4.688 3.167 7.698 3.167 3.009 0 5.571-1.057 7.688-3.174 2.116-2.117 3.175-4.684 3.175-7.704 0-3.019-1.056-5.584-3.167-7.696m-7.682 20.075c-3.458 0-6.395-1.205-8.813-3.612-2.418-2.406-3.627-5.329-3.627-8.767 0-3.437 1.204-6.36 3.611-8.766 2.407-2.408 5.346-3.612 8.815-3.612 3.436 0 6.364 1.204 8.782 3.612 2.418 2.406 3.627 5.329 3.627 8.766 0 3.438-1.209 6.361-3.627 8.767-2.418 2.407-5.341 3.612-8.768 3.612m-221.5558 4.0861h-24.372v-83.655h60.929v19.171h-36.557zm-44.9536 185.043c21.794-.613 28.551-20.354 28.551-52.937 0-35.924-9.423-51.991-28.551-52.563-19.127.572-28.551 16.639-28.551 52.563 0 32.583 6.758 52.324 28.551 52.937m0 133.802c15.322-.375 23.329-9.092 23.329-42.475 0-31.074-6.049-44.379-23.329-44.902-17.279.523-23.328 13.828-23.328 44.902 0 33.383 8.007 42.1 23.328 42.475m-76.951-188.481c0-62.554 25.317-92.651 75.797-93.459h2.2c50.479.808 75.905 30.905 75.905 93.459 0 63.42-23.678 73.177-33.079 79.101 8.705 8.363 28.552 22.301 28.552 65.511 0 48.168-16.66 85.33-71.378 86.265h-2.092c-54.717-.935-71.378-38.097-71.378-86.265 0-43.21 19.847-57.148 28.552-65.511-9.401-5.924-33.079-15.681-33.079-79.101m45.3084-168.7048h-5.223v20.913h5.223c10.468 0 13.559-1.85 13.894-10.456-.335-8.608-3.426-10.457-13.894-10.457m6.963 38.341h-36.557v-83.655h24.371v27.885h12.186c22.263 0 31.335 12.2 31.335 31.37 0 15.541-12.534 24.4-31.335 24.4m167.119-52.2844c0-9.617-3.551-14.8-13.056-15.572-9.506.772-13.056 5.955-13.056 15.572v52.284h-24.372v-52.284c0-21.167 10.949-31.681 34.817-32.972h5.222c23.868 1.291 34.816 11.805 34.816 32.972v52.284h-24.371Zm12.5108 159.3662v183.923c0 20.123 11.68 27.874 25.236 28.194 13.556-.32 25.236-8.071 25.236-28.194v-183.923c0-20.122-11.68-27.874-25.236-28.194-13.556.32-25.236 8.072-25.236 28.194m81.462-52.618c10.794 10.454 20.544 30.665 20.544 60.285v168.59c0 29.619-9.75 49.829-20.544 60.284-10.611 10.275-21.575 17.397-55.348 17.629h-1.757c-33.773-.232-44.736-7.354-55.347-17.629-10.794-10.455-20.543-30.665-20.543-60.284v-168.59c0-29.62 9.749-49.831 20.543-60.285 10.611-10.276 21.574-17.288 55.347-17.52h1.757c33.773.232 44.737 7.244 55.348 17.52"/>
    <path d="M520.5996 194.3848H92.3286v431.727c0 50.724 19.84 74.856 67.897 74.856h292.477c48.055 0 67.897-24.132 67.897-74.856Zm-136.687-101.347h-18.588v66.929h17.347c15.614 0 28.253-8.925 28.253-31.978 0-23.052-12.391-34.951-27.012-34.951m-26.024 0h-34.696v66.929h12.391v-55.773h22.305zm-70.88-.247c-16.604 0-23.296 14.129-23.296 34.703 0 20.575 5.948 33.463 24.288 33.463 16.852 0 22.8-13.136 22.8-32.719 0-23.796-7.187-35.447-23.792-35.447m-55.762 9.42c10.161 0 11.4 11.898 11.4 16.856h-12.391v8.674h22.305v-34.703h-6.196l-1.487 7.933c-2.478-4.709-5.7-8.18-15.861-8.18-14.623 0-22.305 13.633-22.305 34.207s7.187 33.959 24.535 33.959 20.57-13.881 21.562-20.573l-9.666-2.479c-.743 3.966-2.726 13.881-12.144 13.881s-13.135-8.922-13.135-24.54c0-15.616 3.222-25.035 13.383-25.035m230.16 635.314h-309.886c-55.48 0-92.27-44.336-92.27-100.968v-482.21c0-56.633 36.79-100.969 92.27-100.969h309.886c55.48 0 92.27 44.336 92.27 100.969v482.21c0 56.632-36.79 100.968-92.27 100.968"/>
    <path d="M480.7402 281.8857h-2.311v5.218h1.914c1.223 0 2.118-.199 2.684-.598.567-.397.849-1.059.849-1.988 0-.878-.262-1.536-.787-1.974-.526-.439-1.309-.658-2.349-.658m3.015-2.272c-.44.485-.878.788-1.316.911 1.254.255 2.228.759 2.921 1.513.693.756 1.041 1.674 1.041 2.755 0 1.357-.51 2.412-1.53 3.167-1.02.755-2.438 1.132-4.253 1.132h-4.53v-15.697h2.341v6.533h1.423c.499 0 .974-.23 1.423-.688.448-.459.877-1.149 1.285-2.067l1.653-3.778h2.846l-2.035 4.207c-.408.857-.832 1.527-1.269 2.012m-36.2874-15.1557c-10.793 3.484-19.149 3.484-22.63 5.229-3.481 1.742-5.224 2.439-5.224 5.228 0 2.788 1.394 6.971 13.928 6.971 12.533 0 22.282-6.275 27.853-10.457v22.657c-2.785 1.742-16.712 5.228-29.595 5.228-24.371 0-36.557-10.109-36.557-26.143 0-16.033 7.661-18.822 15.668-22.656 8.007-3.834 13.927-3.486 20.889-5.229 6.964-1.743 10.445-4.182 10.445-8.714 0-4.531-8.006-6.971-13.926-6.971-9.748 0-24.023 6.622-31.335 12.2v-22.657c5.92-3.137 20.89-6.972 33.076-6.972 22.282 0 36.557 10.457 36.557 27.886 0 15.685-8.355 20.914-19.149 24.4"/>
    <path fill="#fff" d="M230.999 151.7861c9.417 0 11.4-9.915 12.144-13.882l9.666 2.48c-.992 6.692-4.214 20.573-21.562 20.573-17.349 0-24.536-13.385-24.536-33.959 0-20.574 7.683-34.207 22.305-34.207 10.161 0 13.383 3.471 15.861 8.18l1.488-7.933h6.196v34.703h-22.306v-8.675h12.392c0-4.958-1.239-16.855-11.4-16.855-10.162 0-13.383 9.419-13.383 25.035 0 15.617 3.717 24.54 13.135 24.54m56.5054-50.0713c-9.169 0-12.887 8.18-12.887 26.274 0 18.096 5.7 24.045 12.639 24.045 6.94 0 12.392-5.701 12.392-23.052 0-17.352-2.974-27.267-12.144-27.267m.496 59.242c-18.34 0-24.288-12.888-24.288-33.463 0-20.574 6.692-34.703 23.296-34.703 16.605 0 23.792 11.651 23.792 35.446 0 19.583-5.947 32.72-22.8 32.72"/>
    <path d="M287.2568 152.0342c-6.939 0-12.64-5.949-12.64-24.045 0-18.095 3.718-26.274 12.888-26.274 9.169 0 12.144 9.915 12.144 27.266 0 17.352-5.453 23.053-12.392 23.053"/>
    <path fill="#fff" d="M335.584 159.9668h-12.392v-66.929h34.697v11.156h-22.305Zm48.3281-57.0137h-6.196v47.098h6.196c8.921 0 15.364-6.941 15.364-23.053 0-16.112-6.691-24.045-15.364-24.045m-1.24 57.014h-17.348v-66.929h18.588c14.621 0 27.013 11.898 27.013 34.951s-12.64 31.978-28.253 31.978"/>
    <path d="M383.9121 150.0508h-6.196v-47.098h6.196c8.673 0 15.364 7.933 15.364 24.045 0 16.113-6.443 23.053-15.364 23.053"/>
  </g>
</svg>