<?xml version="1.0" encoding="UTF-8" standalone="no"?>
<svg
   xmlns:dc="http://purl.org/dc/elements/1.1/"
   xmlns:cc="http://creativecommons.org/ns#"
   xmlns:rdf="http://www.w3.org/1999/02/22-rdf-syntax-ns#"
   xmlns:svg="http://www.w3.org/2000/svg"
   xmlns="http://www.w3.org/2000/svg"
   viewBox="0 0 816 1056"
   height="1056"
   width="816"
   xml:space="preserve"
   id="svg2"
   version="1.1"><metadata
     id="metadata8"><rdf:RDF><cc:Work
         rdf:about=""><dc:format>image/svg+xml</dc:format><dc:type
           rdf:resource="http://purl.org/dc/dcmitype/StillImage" /></cc:Work></rdf:RDF></metadata><defs
     id="defs6"><clipPath
       id="clipPath18"
       clipPathUnits="userSpaceOnUse"><path
         id="path16"
         d="M 0,792 H 612 V 0 H 0 Z" /></clipPath></defs><g
     transform="matrix(1.3333333,0,0,-1.3333333,0,1056)"
     id="g10"><g
       id="g12"><g
         clip-path="url(#clipPath18)"
         id="g14"><g
           transform="translate(215.1636,377.6182)"
           id="g20"><path
             id="path22"
             style="fill:#a27129;fill-opacity:1;fill-rule:nonzero;stroke:none"
             d="M 0,0 C 19.091,0.572 28.496,16.614 28.496,52.489 28.496,85.027 21.751,104.74 0,105.352 -21.751,104.74 -28.496,85.027 -28.496,52.489 -28.496,16.614 -19.09,0.572 0,0" /></g><g
           transform="translate(183.582,280.7832)"
           id="g24"><path
             id="path26"
             style="fill:#a27129;fill-opacity:1;fill-rule:nonzero;stroke:none"
             d="M 0,0 H -5.212 V -20.884 H 0 c 10.448,0 13.532,1.846 13.867,10.443 C 13.532,-1.846 10.448,0 0,0" /></g><g
           transform="translate(215.1636,529.3306)"
           id="g28"><path
             id="path30"
             style="fill:#a27129;fill-opacity:1;fill-rule:nonzero;stroke:none"
             d="M 0,0 C 17.246,0.521 23.283,13.808 23.283,44.838 23.283,78.174 15.292,86.88 0,87.254 -15.292,86.88 -23.283,78.174 -23.283,44.838 -23.283,13.808 -17.247,0.521 0,0" /></g><g
           transform="translate(420.1875,405.1187)"
           id="g32"><path
             id="path34"
             style="fill:#a27129;fill-opacity:1;fill-rule:nonzero;stroke:none"
             d="m 0,0 v 183.665 c 0,20.095 -11.658,27.835 -25.187,28.155 -13.53,-0.32 -25.188,-8.06 -25.188,-28.155 V 0 c 0,-20.094 11.658,-27.835 25.188,-28.155 C -11.658,-27.835 0,-20.094 0,0" /></g><g
           transform="translate(553.6768,155.1631)"
           id="g36"><path
             id="path38"
             style="fill:#a27129;fill-opacity:1;fill-rule:nonzero;stroke:none"
             d="m 0,0 c 0,-56.553 -36.719,-100.827 -92.091,-100.827 h -309.285 c -55.373,0 -92.091,44.274 -92.091,100.827 v 481.535 c 0,56.553 36.718,100.827 92.091,100.827 H -92.091 C -36.719,582.362 0,538.088 0,481.535 Z m -82.404,612.065 h -329.617 c -60.857,0 -110.192,-49.334 -110.192,-110.191 V -21.298 c 0,-60.857 49.335,-110.191 110.192,-110.191 h 329.617 c 60.857,0 110.191,49.334 110.191,110.191 v 523.172 c 0,60.857 -49.334,110.191 -110.191,110.191" /></g><g
           transform="translate(484.0117,285.1523)"
           id="g40"><path
             id="path42"
             style="fill:#a27129;fill-opacity:1;fill-rule:nonzero;stroke:none"
             d="m 0,0 c 0,0.926 -0.282,1.589 -0.848,1.985 -0.564,0.399 -1.458,0.597 -2.678,0.597 h -1.91 v -5.21 h 2.306 c 1.038,0 1.819,0.219 2.344,0.657 C -0.262,-1.533 0,-0.876 0,0" /></g><g
           transform="translate(489.9072,272.9902)"
           id="g44"><path
             id="path46"
             style="fill:#a27129;fill-opacity:1;fill-rule:nonzero;stroke:none"
             d="m 0,0 c -2.413,-2.404 -5.336,-3.606 -8.767,-3.606 -3.461,0 -6.393,1.202 -8.795,3.606 -2.404,2.403 -3.604,5.321 -3.604,8.755 0,3.433 1.206,6.35 3.618,8.755 2.413,2.403 5.346,3.605 8.798,3.605 3.42,0 6.337,-1.202 8.75,-3.605 C 2.412,15.105 3.619,12.188 3.619,8.755 3.619,5.321 2.412,2.403 0,0 m -59.608,-60.082 c -12.162,0 -27.104,3.829 -33.011,6.961 v 22.626 c 7.298,-5.57 21.544,-12.183 31.274,-12.183 5.907,0 13.899,2.436 13.899,6.962 0,4.525 -3.475,6.961 -10.424,8.701 -6.95,1.741 -12.857,1.393 -20.85,5.221 -7.992,3.829 -15.636,6.614 -15.636,22.626 0,16.011 12.162,26.105 36.486,26.105 12.856,0 26.757,-3.48 29.536,-5.22 V -0.909 c -5.56,4.178 -15.289,10.443 -27.799,10.443 -12.51,0 -13.899,-4.178 -13.899,-6.962 0,-2.785 1.737,-3.481 5.212,-5.22 3.475,-1.742 11.814,-1.742 22.587,-5.222 10.772,-3.482 19.112,-8.702 19.112,-24.365 0,-17.405 -14.247,-27.847 -36.487,-27.847 m -91.416,139.666 c -10.773,10.439 -20.504,30.622 -20.504,60.2 v 168.354 c 0,29.578 9.731,49.76 20.504,60.2 10.589,10.262 21.533,17.373 55.24,17.605 h 1.754 c 33.707,-0.232 44.65,-7.343 55.24,-17.605 10.773,-10.44 20.503,-30.622 20.503,-60.2 V 139.784 c 0,-29.578 -9.73,-49.761 -20.503,-60.2 C -49.38,69.322 -60.323,62.319 -94.03,62.089 h -1.754 c -33.707,0.23 -44.651,7.233 -55.24,17.495 m 42.767,-106.599 c 0,-21.137 -10.927,-31.635 -34.748,-32.925 h -5.212 c -23.822,1.29 -34.749,11.788 -34.749,32.925 v 52.212 h 24.323 v -52.212 c 0,-9.603 3.544,-14.779 13.032,-15.549 9.487,0.77 13.03,5.946 13.03,15.549 v 52.212 h 24.324 z m -85.134,-31.327 h -60.811 v 83.539 h 24.324 v -64.394 h 36.487 z m -105.984,27.847 h -12.163 v -27.847 h -24.324 v 83.539 h 36.487 c 18.764,0 31.273,-8.847 31.273,-24.365 0,-19.145 -9.054,-31.327 -31.273,-31.327 m -47.652,330.282 c 0,48.101 16.628,85.211 71.24,86.144 h 2.087 c 54.612,-0.933 71.24,-38.043 71.24,-86.144 0,-43.149 -19.809,-57.068 -28.497,-65.419 9.383,-5.916 33.015,-15.659 33.015,-78.991 0,-62.467 -25.376,-92.521 -75.758,-93.327 h -2.196 c -50.382,0.806 -75.649,30.86 -75.649,93.327 0,63.332 23.631,73.075 33.014,78.991 -8.688,8.351 -28.496,22.27 -28.496,65.419 m 310.018,128.241 h -291.91 c -47.963,0 -67.766,-24.097 -67.766,-74.75 V -77.845 H 30.756 v 431.123 c 0,50.653 -19.802,74.75 -67.765,74.75" /></g><g
           transform="translate(484.3477,274.0449)"
           id="g48"><path
             id="path50"
             style="fill:#a27129;fill-opacity:1;fill-rule:nonzero;stroke:none"
             d="M 0,0 -1.648,3.773 C -2.057,4.69 -2.483,5.378 -2.932,5.836 -3.38,6.294 -3.854,6.523 -4.353,6.523 H -5.771 V 0 h -2.337 v 15.675 h 4.519 c 1.814,0 3.229,-0.376 4.246,-1.13 1.019,-0.754 1.528,-1.809 1.528,-3.163 0,-1.079 -0.346,-1.997 -1.039,-2.75 C 0.453,7.878 -0.519,7.374 -1.771,7.119 -1.333,6.997 -0.896,6.693 -0.457,6.21 -0.021,5.726 0.402,5.057 0.81,4.2 L 2.841,0 Z m -3.207,18.563 c -3.003,0 -5.564,-1.053 -7.682,-3.163 -2.117,-2.108 -3.175,-4.674 -3.175,-7.7 0,-3.025 1.058,-5.591 3.175,-7.693 2.118,-2.104 4.679,-3.154 7.682,-3.154 3.014,0 5.574,1.053 7.682,3.162 2.107,2.108 3.161,4.67 3.161,7.685 0,3.015 -1.056,5.579 -3.169,7.693 -2.112,2.114 -4.67,3.17 -7.674,3.17" /></g><g
           transform="translate(480.8818,282.5244)"
           id="g52"><path
             id="path54"
             style="fill:#000000;fill-opacity:1;fill-rule:nonzero;stroke:none"
             d="m 0,0 h -2.306 v 5.21 h 1.91 C 0.824,5.21 1.718,5.012 2.282,4.613 2.848,4.217 3.13,3.554 3.13,2.628 3.13,1.752 2.868,1.095 2.344,0.657 1.819,0.219 1.038,0 0,0 m 3.009,-2.27 c -0.439,0.484 -0.876,0.788 -1.315,0.91 1.253,0.255 2.225,0.758 2.917,1.512 0.694,0.753 1.039,1.671 1.039,2.75 0,1.355 -0.508,2.41 -1.527,3.163 -1.018,0.754 -2.433,1.13 -4.246,1.13 h -4.52 V -8.479 h 2.337 v 6.523 h 1.419 c 0.499,0 0.973,-0.23 1.421,-0.688 0.448,-0.458 0.875,-1.145 1.283,-2.062 l 1.649,-3.773 h 2.841 l -2.032,4.2 c -0.407,0.856 -0.83,1.525 -1.266,2.009" /></g><g
           transform="translate(357.3262,245.9756)"
           id="g56"><path
             id="path58"
             style="fill:#000000;fill-opacity:1;fill-rule:nonzero;stroke:none"
             d="M 0,0 C 0,-9.604 -3.543,-14.779 -13.03,-15.55 -22.518,-14.779 -26.062,-9.604 -26.062,0 V 52.212 H -50.385 V 0 c 0,-21.138 10.927,-31.636 34.749,-32.926 h 5.212 C 13.397,-31.636 24.324,-21.138 24.324,0 V 52.212 H 0 Z" /></g><g
           transform="translate(183.582,259.8994)"
           id="g60"><path
             id="path62"
             style="fill:#000000;fill-opacity:1;fill-rule:nonzero;stroke:none"
             d="M 0,0 H -5.212 V 20.884 H 0 c 10.448,0 13.532,-1.846 13.867,-10.442 C 13.532,1.846 10.448,0 0,0 m 6.95,38.288 h -36.487 v -83.539 h 24.325 v 27.847 H 6.95 c 22.219,0 31.274,12.181 31.274,31.327 0,15.517 -12.51,24.365 -31.274,24.365" /></g><g
           transform="translate(260.0293,298.1875)"
           id="g64"><path
             id="path66"
             style="fill:#000000;fill-opacity:1;fill-rule:nonzero;stroke:none"
             d="m 0,0 h -24.324 v -83.539 h 60.811 v 19.144 l -36.487,0 z" /></g><g
           transform="translate(447.6738,265.1201)"
           id="g68"><path
             id="path70"
             style="fill:#000000;fill-opacity:1;fill-rule:nonzero;stroke:none"
             d="m 0,0 c -10.772,3.48 -19.111,3.48 -22.587,5.222 -3.475,1.739 -5.212,2.435 -5.212,5.22 0,2.785 1.39,6.962 13.9,6.962 12.509,0 22.239,-6.265 27.798,-10.443 v 22.626 c -2.779,1.74 -16.679,5.221 -29.536,5.221 -24.324,0 -36.486,-10.095 -36.486,-26.106 0,-16.012 7.644,-18.797 15.637,-22.626 7.993,-3.828 13.899,-3.48 20.849,-5.221 6.949,-1.74 10.424,-4.176 10.424,-8.701 0,-4.526 -7.992,-6.962 -13.898,-6.962 -9.731,0 -23.977,6.613 -31.275,12.183 v -22.626 c 5.907,-3.132 20.85,-6.961 33.011,-6.961 22.24,0 36.487,10.442 36.487,27.847 C 19.112,-8.702 10.772,-3.481 0,0" /></g><g
           transform="translate(369.8125,405.1187)"
           id="g72"><path
             id="path74"
             style="fill:#000000;fill-opacity:1;fill-rule:nonzero;stroke:none"
             d="m 0,0 v 183.665 c 0,20.095 11.658,27.835 25.187,28.155 13.53,-0.32 25.188,-8.06 25.188,-28.155 V 0 c 0,-20.094 -11.658,-27.835 -25.188,-28.155 C 11.658,-27.835 0,-20.094 0,0 m 81.305,-52.544 c 10.773,10.439 20.503,30.622 20.503,60.2 V 176.01 c 0,29.577 -9.73,49.76 -20.503,60.199 -10.59,10.262 -21.534,17.374 -55.241,17.605 H 24.311 C -9.396,253.583 -20.34,246.471 -30.93,236.209 -41.702,225.77 -51.434,205.587 -51.434,176.01 V 7.656 c 0,-29.578 9.732,-49.761 20.504,-60.2 10.59,-10.262 21.534,-17.265 55.241,-17.496 h 1.753 c 33.707,0.231 44.651,7.234 55.241,17.496" /></g><g
           transform="translate(488.8223,274.0596)"
           id="g76"><path
             id="path78"
             style="fill:#000000;fill-opacity:1;fill-rule:nonzero;stroke:none"
             d="m 0,0 c -2.107,-2.108 -4.668,-3.162 -7.682,-3.162 -3.003,0 -5.563,1.051 -7.681,3.154 -2.117,2.103 -3.176,4.668 -3.176,7.694 0,3.025 1.059,5.591 3.176,7.7 2.118,2.109 4.678,3.163 7.681,3.163 3.004,0 5.563,-1.057 7.674,-3.171 C 2.105,13.265 3.161,10.7 3.161,7.686 3.161,4.67 2.107,2.108 0,0 m -7.665,20.046 c -3.452,0 -6.385,-1.202 -8.798,-3.606 -2.412,-2.404 -3.618,-5.322 -3.618,-8.754 0,-3.434 1.2,-6.352 3.603,-8.755 2.403,-2.405 5.335,-3.607 8.796,-3.607 3.431,0 6.354,1.202 8.767,3.607 2.412,2.403 3.619,5.321 3.619,8.755 0,3.432 -1.207,6.35 -3.619,8.754 -2.413,2.404 -5.33,3.606 -8.75,3.606" /></g><g
           transform="translate(215.1636,482.9702)"
           id="g80"><path
             id="path82"
             style="fill:#000000;fill-opacity:1;fill-rule:nonzero;stroke:none"
             d="m 0,0 c 21.751,-0.612 28.496,-20.325 28.496,-52.863 0,-35.875 -9.405,-51.917 -28.496,-52.489 -19.09,0.572 -28.496,16.614 -28.496,52.489 0,32.538 6.745,52.251 28.496,52.863 M 0,133.615 C 15.292,133.24 23.283,124.535 23.283,91.199 23.283,60.168 17.246,46.882 0,46.36 c -17.247,0.522 -23.283,13.808 -23.283,44.839 0,33.336 7.991,42.041 23.283,42.416 M -76.801,-54.603 c 0,-62.467 25.267,-92.521 75.649,-93.327 h 2.196 c 50.381,0.806 75.758,30.86 75.758,93.327 0,63.332 -23.632,73.075 -33.015,78.991 8.688,8.351 28.497,22.27 28.497,65.419 0,48.101 -16.629,85.211 -71.24,86.144 h -2.087 c -54.612,-0.933 -71.241,-38.043 -71.241,-86.144 0,-43.149 19.809,-57.068 28.497,-65.419 -9.383,-5.916 -33.014,-15.659 -33.014,-78.991" /></g><g
           transform="translate(520.6631,195.1455)"
           id="g84"><path
             id="path86"
             style="fill:#000000;fill-opacity:1;fill-rule:nonzero;stroke:none"
             d="m 0,0 h -427.44 v 431.123 c 0,50.652 19.802,74.75 67.765,74.75 h 291.91 C -19.802,505.873 0,481.775 0,431.123 Z m -57.057,-44.99 h -26.828 v -18.205 h 21.08 v -9.582 h -21.08 v -19.165 h 26.828 v -9.581 h -38.327 v 66.115 h 38.327 z m -45.993,-56.533 h -42.159 v 9.581 l 27.787,46.952 h -26.829 v 9.582 h 40.243 v -8.624 l -28.745,-47.91 h 29.703 z m -50.783,0 h -10.541 l -22.995,51.742 v -51.742 h -9.582 v 66.115 h 13.414 l 20.122,-45.035 v 45.035 h 9.582 z m -78.572,-0.767 c -15.906,0 -23.954,11.114 -23.954,35.069 0,23.955 9.773,32.771 24.146,32.771 14.948,0 23.38,-11.115 23.38,-33.729 0,-22.039 -7.666,-34.111 -23.572,-34.111 m -44.076,0.767 -10.349,27.787 h -8.815 v -27.787 h -11.499 v 66.115 h 21.081 c 13.223,0 19.546,-8.433 19.546,-18.973 0,-10.731 -5.365,-14.756 -9.773,-17.438 l 12.265,-29.704 z m -62.474,0.958 h -23.763 v 65.157 h 23.954 c 11.882,0 16.673,-8.24 16.673,-16.482 0,-8.24 -2.875,-11.689 -9.39,-14.564 6.707,-2.108 11.498,-8.24 11.498,-15.906 0,-8.432 -4.344,-18.205 -18.972,-18.205 m 279.878,642.944 h -309.286 c -55.372,0 -92.091,-44.273 -92.091,-100.827 V -39.982 c 0,-56.553 36.719,-100.828 92.091,-100.828 h 309.286 c 55.372,0 92.091,44.275 92.091,100.828 v 481.534 c 0,56.554 -36.719,100.827 -92.091,100.827" /></g><g
           transform="translate(425.2793,93.6221)"
           id="g88"><path
             id="path90"
             style="fill:#ffffff;fill-opacity:1;fill-rule:nonzero;stroke:none"
             d="M 0,0 H 38.327 V 9.581 H 11.499 v 19.165 h 21.08 v 9.582 h -21.08 v 18.205 h 26.828 v 9.582 L 0,66.115 Z" /></g><g
           transform="translate(416.6553,151.1133)"
           id="g92"><path
             id="path94"
             style="fill:#ffffff;fill-opacity:1;fill-rule:nonzero;stroke:none"
             d="m 0,0 v 8.624 h -40.243 v -9.582 h 26.829 L -41.201,-47.91 v -9.581 H 0.958 v 9.581 h -29.703 z" /></g><g
           transform="translate(357.248,114.7021)"
           id="g96"><path
             id="path98"
             style="fill:#ffffff;fill-opacity:1;fill-rule:nonzero;stroke:none"
             d="M 0,0 -20.122,45.035 H -33.536 V -21.08 h 9.582 V 30.662 L -0.959,-21.08 H 9.582 V 45.035 H 0 Z" /></g><g
           transform="translate(288.2583,102.0547)"
           id="g100"><path
             id="path102"
             style="fill:#ffffff;fill-opacity:1;fill-rule:nonzero;stroke:none"
             d="m 0,0 c -8.241,0 -12.457,7.09 -12.457,24.912 0,17.822 4.983,24.53 12.266,24.53 7.281,0 12.456,-6.324 12.456,-23.188 C 12.265,9.39 8.241,0 0,0 m 0.192,58.641 c -14.373,0 -24.147,-8.816 -24.147,-32.771 0,-23.955 8.049,-35.069 23.955,-35.069 15.906,0 23.572,12.072 23.572,34.111 0,22.613 -8.432,33.729 -23.38,33.729" /></g><g
           transform="translate(232.6836,130.0332)"
           id="g104"><path
             id="path106"
             style="fill:#ffffff;fill-opacity:1;fill-rule:nonzero;stroke:none"
             d="M 0,0 H -7.666 V 20.122 H 0 c 7.474,0 10.348,-3.45 10.348,-9.007 C 10.348,5.558 8.049,0 0,0 m 21.463,10.731 c 0,10.54 -6.324,18.973 -19.546,18.973 H -19.164 V -36.411 H -7.666 V -8.624 H 1.149 L 11.498,-36.411 H 23.955 L 11.689,-6.707 c 4.408,2.683 9.774,6.707 9.774,17.438" /></g><g
           transform="translate(179.0249,103.2031)"
           id="g108"><path
             id="path110"
             style="fill:#ffffff;fill-opacity:1;fill-rule:nonzero;stroke:none"
             d="M 0,0 H -9.582 V 20.123 H 0 c 5.997,0 9.582,-3.449 9.582,-9.774 C 9.582,4.025 5.435,0 0,0 m -9.582,46.952 h 7.665 c 6.133,0 9.965,-1.917 9.965,-8.24 0,-6.324 -4.407,-9.965 -9.965,-9.965 H -9.582 Z M 10.157,25.488 c 6.515,2.875 9.39,6.324 9.39,14.565 0,8.241 -4.791,16.481 -16.672,16.481 H -21.08 V -8.623 H 2.683 c 14.628,0 18.972,9.773 18.972,18.205 0,7.666 -4.791,13.799 -11.498,15.906" /></g><g
           transform="translate(187.0732,141.915)"
           id="g112"><path
             id="path114"
             style="fill:#000000;fill-opacity:1;fill-rule:nonzero;stroke:none"
             d="M 0,0 C 0,6.323 -3.833,8.24 -9.965,8.24 H -17.63 V -9.965 h 7.665 C -4.407,-9.965 0,-6.324 0,0" /></g><g
           transform="translate(179.0249,123.3262)"
           id="g116"><path
             id="path118"
             style="fill:#000000;fill-opacity:1;fill-rule:nonzero;stroke:none"
             d="M 0,0 H -9.582 V -20.123 H 0 c 5.435,0 9.582,4.025 9.582,10.349 C 9.582,-3.449 5.997,0 0,0" /></g><g
           transform="translate(232.6836,150.1553)"
           id="g120"><path
             id="path122"
             style="fill:#000000;fill-opacity:1;fill-rule:nonzero;stroke:none"
             d="M 0,0 H -7.666 V -20.122 H 0 c 8.049,0 10.348,5.558 10.348,11.115 C 10.348,-3.45 7.474,0 0,0" /></g><g
           transform="translate(288.0669,151.4971)"
           id="g124"><path
             id="path126"
             style="fill:#000000;fill-opacity:1;fill-rule:nonzero;stroke:none"
             d="m 0,0 c -7.282,0 -12.265,-6.708 -12.265,-24.53 0,-17.823 4.216,-24.912 12.456,-24.912 8.241,0 12.265,9.389 12.265,26.254 C 12.456,-6.324 7.282,0 0,0" /></g></g></g></g></svg>