<?xml version="1.0" encoding="UTF-8" standalone="no"?>
<svg
   xmlns:dc="http://purl.org/dc/elements/1.1/"
   xmlns:cc="http://creativecommons.org/ns#"
   xmlns:rdf="http://www.w3.org/1999/02/22-rdf-syntax-ns#"
   xmlns:svg="http://www.w3.org/2000/svg"
   xmlns="http://www.w3.org/2000/svg"
   viewBox="0 0 816 1056"
   height="1056"
   width="816"
   xml:space="preserve"
   id="svg2"
   version="1.1"><metadata
     id="metadata8"><rdf:RDF><cc:Work
         rdf:about=""><dc:format>image/svg+xml</dc:format><dc:type
           rdf:resource="http://purl.org/dc/dcmitype/StillImage" /></cc:Work></rdf:RDF></metadata><defs
     id="defs6"><clipPath
       id="clipPath18"
       clipPathUnits="userSpaceOnUse"><path
         id="path16"
         d="M 0,792 H 612 V 0 H 0 Z" /></clipPath></defs><g
     transform="matrix(1.3333333,0,0,-1.3333333,0,1056)"
     id="g10"><g
       id="g12"><g
         clip-path="url(#clipPath18)"
         id="g14"><g
           transform="translate(483.876,284.5176)"
           id="g20"><path
             id="path22"
             style="fill:#cccccc;fill-opacity:1;fill-rule:nonzero;stroke:none"
             d="M 0,0 C 0,0.929 -0.282,1.591 -0.849,1.988 -1.415,2.387 -2.31,2.586 -3.533,2.586 h -1.913 v -5.218 h 2.31 c 1.04,0 1.824,0.219 2.349,0.658 C -0.262,-1.536 0,-0.878 0,0" /></g><g
           transform="translate(419.9277,404.6523)"
           id="g24"><path
             id="path26"
             style="fill:#cccccc;fill-opacity:1;fill-rule:nonzero;stroke:none"
             d="m 0,0 v 183.923 c 0,20.123 -11.68,27.874 -25.235,28.195 -13.557,-0.321 -25.237,-8.072 -25.237,-28.195 L -50.472,0 c 0,-20.122 11.68,-27.874 25.237,-28.194 C -11.68,-27.874 0,-20.122 0,0" /></g><g
           transform="translate(182.8633,280.1426)"
           id="g28"><path
             id="path30"
             style="fill:#cccccc;fill-opacity:1;fill-rule:nonzero;stroke:none"
             d="M 0,0 H -5.223 V -20.913 H 0 c 10.468,0 13.559,1.849 13.894,10.457 C 13.559,-1.849 10.468,0 0,0" /></g><g
           transform="translate(214.5059,529.0386)"
           id="g32"><path
             id="path34"
             style="fill:#cccccc;fill-opacity:1;fill-rule:nonzero;stroke:none"
             d="M 0,0 C 17.28,0.522 23.329,13.828 23.329,44.901 23.329,78.285 15.322,87.001 0,87.376 -15.321,87.001 -23.328,78.285 -23.328,44.901 -23.328,13.828 -17.279,0.522 0,0" /></g><g
           transform="translate(214.5059,377.1133)"
           id="g36"><path
             id="path38"
             style="fill:#cccccc;fill-opacity:1;fill-rule:nonzero;stroke:none"
             d="M 0,0 C 19.128,0.572 28.551,16.639 28.551,52.563 28.551,85.146 21.794,104.887 0,105.5 -21.793,104.887 -28.551,85.146 -28.551,52.563 -28.551,16.639 -19.127,0.572 0,0" /></g><g
           transform="translate(484.2129,273.3945)"
           id="g40"><path
             id="path42"
             style="fill:#cccccc;fill-opacity:1;fill-rule:nonzero;stroke:none"
             d="M 0,0 -1.652,3.778 C -2.061,4.696 -2.489,5.386 -2.938,5.845 -3.387,6.304 -3.861,6.533 -4.36,6.533 H -5.783 V 0 h -2.342 v 15.697 h 4.53 c 1.816,0 3.234,-0.377 4.253,-1.132 1.021,-0.754 1.53,-1.81 1.53,-3.167 C 2.188,10.317 1.841,9.399 1.147,8.644 0.454,7.89 -0.52,7.385 -1.773,7.13 -1.336,7.007 -0.897,6.704 -0.458,6.219 -0.021,5.734 0.403,5.064 0.812,4.207 L 2.847,0 Z m -3.212,18.589 c -3.01,0 -5.575,-1.056 -7.698,-3.167 -2.121,-2.111 -3.182,-4.682 -3.182,-7.711 0,-3.029 1.061,-5.598 3.182,-7.704 2.123,-2.106 4.688,-3.159 7.698,-3.159 3.019,0 5.584,1.055 7.696,3.168 2.112,2.111 3.167,4.675 3.167,7.695 0,3.019 -1.058,5.587 -3.174,7.704 -2.118,2.116 -4.68,3.174 -7.689,3.174" /></g><g
           transform="translate(553.6768,154.3467)"
           id="g44"><path
             id="path46"
             style="fill:#cccccc;fill-opacity:1;fill-rule:nonzero;stroke:none"
             d="m 0,0 c 0,-56.633 -36.79,-100.969 -92.271,-100.969 h -309.885 c -55.48,0 -92.27,44.336 -92.27,100.969 v 482.21 c 0,56.632 36.79,100.969 92.27,100.969 H -92.271 C -36.79,583.179 0,538.842 0,482.21 Z m -82.404,612.882 h -329.617 c -60.857,0 -110.192,-49.335 -110.192,-110.192 V -20.481 c 0,-60.858 49.335,-110.192 110.192,-110.192 h 329.617 c 60.857,0 110.191,49.334 110.191,110.192 V 502.69 c 0,60.857 -49.334,110.192 -110.191,110.192" /></g><g
           transform="translate(489.7832,272.3389)"
           id="g48"><path
             id="path50"
             style="fill:#cccccc;fill-opacity:1;fill-rule:nonzero;stroke:none"
             d="m 0,0 c -2.418,-2.407 -5.346,-3.611 -8.782,-3.611 -3.469,0 -6.407,1.204 -8.815,3.611 -2.407,2.406 -3.611,5.329 -3.611,8.767 0,3.437 1.209,6.36 3.627,8.766 2.418,2.407 5.355,3.613 8.813,3.613 3.427,0 6.35,-1.206 8.768,-3.613 C 2.418,15.127 3.627,12.204 3.627,8.767 3.627,5.329 2.418,2.406 0,0 m -59.724,-60.167 c -12.185,0 -27.156,3.835 -33.076,6.972 v 22.657 c 7.313,-5.578 21.587,-12.2 31.335,-12.2 5.92,0 13.927,2.44 13.927,6.971 0,4.532 -3.482,6.971 -10.445,8.714 -6.962,1.743 -12.882,1.395 -20.889,5.229 -8.008,3.834 -15.668,6.623 -15.668,22.656 0,16.035 12.186,26.144 36.557,26.144 12.882,0 26.809,-3.487 29.594,-5.229 V -0.91 c -5.57,4.182 -15.319,10.457 -27.852,10.457 -12.534,0 -13.928,-4.183 -13.928,-6.971 0,-2.789 1.742,-3.486 5.224,-5.228 3.48,-1.744 11.837,-1.744 22.63,-5.229 10.794,-3.486 19.149,-8.715 19.149,-24.4 0,-17.429 -14.275,-27.886 -36.558,-27.886 m -91.593,139.862 c -10.794,10.454 -20.543,30.665 -20.543,60.285 v 168.59 c 0,29.619 9.749,49.83 20.543,60.284 10.611,10.276 21.574,17.398 55.347,17.63 h 1.757 c 33.773,-0.232 44.736,-7.354 55.348,-17.63 10.794,-10.454 20.544,-30.665 20.544,-60.284 V 139.98 c 0,-29.62 -9.75,-49.831 -20.544,-60.285 C -49.477,69.42 -60.44,62.407 -94.213,62.176 h -1.757 c -33.773,0.231 -44.736,7.244 -55.347,17.519 m 42.85,-106.748 c 0,-21.167 -10.948,-31.68 -34.816,-32.971 h -5.222 c -23.868,1.291 -34.817,11.804 -34.817,32.971 v 52.284 h 24.372 v -52.284 c 0,-9.617 3.551,-14.8 13.056,-15.572 9.505,0.772 13.056,5.955 13.056,15.572 v 52.284 h 24.371 z m -85.3,-31.371 h -60.928 v 83.655 h 24.371 v -64.484 h 36.557 z m -106.19,27.886 h -12.186 v -27.886 h -24.371 v 83.655 h 36.557 c 18.801,0 31.335,-8.858 31.335,-24.399 0,-19.171 -9.072,-31.37 -31.335,-31.37 m -47.744,330.745 c 0,48.168 16.661,85.331 71.378,86.266 h 2.092 c 54.717,-0.935 71.378,-38.098 71.378,-86.266 0,-43.209 -19.847,-57.147 -28.552,-65.511 9.401,-5.924 33.079,-15.681 33.079,-79.101 0,-62.554 -25.426,-92.651 -75.905,-93.458 h -2.201 c -50.479,0.807 -75.796,30.904 -75.796,93.458 0,63.42 23.678,73.177 33.079,79.101 -8.705,8.364 -28.552,22.302 -28.552,65.511 m 310.62,128.422 h -292.477 c -48.056,0 -67.897,-24.132 -67.897,-74.856 V -77.954 H 30.816 v 431.727 c 0,50.724 -19.841,74.856 -67.897,74.856" /></g><g
           transform="translate(214.5059,482.6133)"
           id="g52"><path
             id="path54"
             style="fill:#000000;fill-opacity:1;fill-rule:nonzero;stroke:none"
             d="m 0,0 c 21.794,-0.613 28.551,-20.354 28.551,-52.937 0,-35.924 -9.423,-51.991 -28.551,-52.563 -19.127,0.572 -28.551,16.639 -28.551,52.563 0,32.583 6.758,52.324 28.551,52.937 M 0,133.802 C 15.322,133.427 23.329,124.71 23.329,91.327 23.329,60.253 17.28,46.948 0,46.425 c -17.279,0.523 -23.328,13.828 -23.328,44.902 0,33.383 8.007,42.1 23.328,42.475 M -76.951,-54.679 c 0,-62.554 25.317,-92.651 75.797,-93.459 h 2.2 c 50.479,0.808 75.905,30.905 75.905,93.459 0,63.42 -23.678,73.177 -33.079,79.101 8.705,8.363 28.552,22.301 28.552,65.511 0,48.168 -16.66,85.33 -71.378,86.265 h -2.092 c -54.717,-0.935 -71.378,-38.097 -71.378,-86.265 0,-43.21 19.847,-57.148 28.552,-65.511 -9.401,-5.924 -33.079,-15.681 -33.079,-79.101" /></g><g
           transform="translate(356.9453,245.2861)"
           id="g56"><path
             id="path58"
             style="fill:#000000;fill-opacity:1;fill-rule:nonzero;stroke:none"
             d="M 0,0 C 0,-9.617 -3.551,-14.8 -13.056,-15.572 -22.562,-14.8 -26.112,-9.617 -26.112,0 V 52.284 H -50.484 V 0 c 0,-21.167 10.949,-31.681 34.817,-32.972 h 5.222 C 13.423,-31.681 24.371,-21.167 24.371,0 V 52.284 H 0 Z" /></g><g
           transform="translate(369.4561,404.6523)"
           id="g60"><path
             id="path62"
             style="fill:#000000;fill-opacity:1;fill-rule:nonzero;stroke:none"
             d="m 0,0 v 183.923 c 0,20.123 11.68,27.874 25.236,28.195 13.556,-0.321 25.236,-8.072 25.236,-28.195 V 0 c 0,-20.122 -11.68,-27.874 -25.236,-28.194 C 11.68,-27.874 0,-20.122 0,0 m 81.462,-52.618 c 10.794,10.454 20.544,30.665 20.544,60.285 v 168.59 c 0,29.619 -9.75,49.83 -20.544,60.284 -10.611,10.275 -21.575,17.397 -55.348,17.629 H 24.357 C -9.416,253.938 -20.379,246.816 -30.99,236.541 -41.784,226.087 -51.533,205.876 -51.533,176.257 V 7.667 c 0,-29.62 9.749,-49.831 20.543,-60.285 10.611,-10.276 21.574,-17.288 55.347,-17.52 h 1.757 c 33.773,0.232 44.737,7.244 55.348,17.52" /></g><g
           transform="translate(259.4595,297.5703)"
           id="g64"><path
             id="path66"
             style="fill:#000000;fill-opacity:1;fill-rule:nonzero;stroke:none"
             d="m 0,0 h -24.372 v -83.655 h 60.929 v 19.171 l -36.557,0 z" /></g><g
           transform="translate(480.7402,281.8857)"
           id="g68"><path
             id="path70"
             style="fill:#000000;fill-opacity:1;fill-rule:nonzero;stroke:none"
             d="m 0,0 h -2.311 v 5.218 h 1.914 C 0.826,5.218 1.721,5.019 2.287,4.62 2.854,4.223 3.136,3.561 3.136,2.632 3.136,1.754 2.874,1.096 2.349,0.658 1.823,0.219 1.04,0 0,0 m 3.015,-2.272 c -0.44,0.485 -0.878,0.788 -1.316,0.911 1.254,0.255 2.228,0.759 2.921,1.513 0.693,0.756 1.041,1.674 1.041,2.755 0,1.357 -0.51,2.412 -1.53,3.167 -1.02,0.755 -2.438,1.132 -4.253,1.132 h -4.53 V -8.491 h 2.341 v 6.533 h 1.423 c 0.499,0 0.974,-0.23 1.423,-0.688 0.448,-0.459 0.877,-1.149 1.285,-2.067 l 1.653,-3.778 h 2.846 l -2.035,4.207 c -0.408,0.857 -0.832,1.527 -1.269,2.012" /></g><g
           transform="translate(520.5996,194.3848)"
           id="g72"><path
             id="path74"
             style="fill:#000000;fill-opacity:1;fill-rule:nonzero;stroke:none"
             d="m 0,0 h -428.271 v 431.727 c 0,50.724 19.84,74.856 67.897,74.856 H -67.897 C -19.842,506.583 0,482.451 0,431.727 Z m -24.374,-103.513 h -10.542 v 54.621 l -15.814,-54.621 h -7.028 l -15.813,54.621 v -54.621 h -10.542 v 66.956 h 15.812 l 14.057,-43.697 14.056,43.697 h 15.814 z m -72.039,19.381 c 0,-13.097 -9.884,-20.315 -21.085,-20.315 -11.201,0 -21.085,7.218 -21.085,20.315 v 47.575 h 10.543 v -47.575 c 0,-5.666 4.087,-9.835 10.542,-10.475 6.456,0.64 10.542,4.809 10.542,10.475 v 47.575 h 10.543 z m -56.227,-19.381 h -10.542 l -24.598,52.861 v -52.861 h -10.542 v 66.956 h 14.055 l 21.085,-45.812 v 45.812 h 10.542 z m -59.738,0 h -10.543 v 66.956 h 10.543 z m -15.814,56.384 h -15.814 v -56.384 h -10.542 v 56.384 h -15.813 v 10.572 h 42.169 z m -50.955,-56.384 -4.571,17.62 h -17.214 l -4.57,-17.62 h -12.3 l 19.327,66.956 h 12.3 l 19.328,-66.956 z m -40.412,0 h -33.384 v 66.956 h 10.542 v -56.384 h 22.842 z m -61.497,26.43 h -12.299 v -26.43 h -10.543 v 66.956 h 24.599 c 12.739,0 16.693,-11.453 16.693,-22.025 0,-10.572 -8.786,-18.501 -18.45,-18.501 m 321.863,620.224 h -309.886 c -55.48,0 -92.27,-44.337 -92.27,-100.969 v -482.21 c 0,-56.633 36.79,-100.969 92.27,-100.969 h 309.886 c 55.48,0 92.27,44.336 92.27,100.969 v 482.21 c 0,56.632 -36.79,100.969 -92.27,100.969" /></g><g
           transform="translate(488.6973,273.4102)"
           id="g76"><path
             id="path78"
             style="fill:#000000;fill-opacity:1;fill-rule:nonzero;stroke:none"
             d="m 0,0 c -2.112,-2.112 -4.678,-3.168 -7.696,-3.168 -3.01,0 -5.575,1.054 -7.699,3.159 -2.121,2.107 -3.181,4.675 -3.181,7.704 0,3.03 1.06,5.6 3.181,7.711 2.124,2.112 4.689,3.167 7.699,3.167 3.009,0 5.571,-1.057 7.688,-3.174 C 2.108,13.282 3.167,10.715 3.167,7.695 3.167,4.676 2.111,2.111 0,0 m -7.682,20.074 c -3.458,0 -6.395,-1.205 -8.813,-3.612 -2.418,-2.406 -3.627,-5.329 -3.627,-8.767 0,-3.437 1.204,-6.36 3.611,-8.766 2.407,-2.408 5.346,-3.612 8.815,-3.612 3.436,0 6.364,1.204 8.782,3.612 2.418,2.406 3.627,5.329 3.627,8.766 0,3.438 -1.209,6.361 -3.627,8.767 -2.418,2.407 -5.341,3.612 -8.768,3.612" /></g><g
           transform="translate(182.8633,259.2295)"
           id="g80"><path
             id="path82"
             style="fill:#000000;fill-opacity:1;fill-rule:nonzero;stroke:none"
             d="M 0,0 H -5.223 V 20.913 H 0 c 10.468,0 13.559,-1.849 13.894,-10.456 C 13.559,1.849 10.468,0 0,0 m 6.963,38.341 h -36.557 v -83.655 h 24.371 v 27.885 H 6.963 c 22.263,0 31.335,12.2 31.335,31.37 0,15.541 -12.534,24.4 -31.335,24.4" /></g><g
           transform="translate(447.4678,264.458)"
           id="g84"><path
             id="path86"
             style="fill:#000000;fill-opacity:1;fill-rule:nonzero;stroke:none"
             d="m 0,0 c -10.793,3.484 -19.149,3.484 -22.63,5.229 -3.481,1.742 -5.224,2.439 -5.224,5.228 0,2.788 1.394,6.971 13.928,6.971 12.533,0 22.282,-6.275 27.853,-10.457 v 22.657 c -2.785,1.742 -16.712,5.228 -29.595,5.228 -24.371,0 -36.557,-10.108 -36.557,-26.143 0,-16.033 7.661,-18.822 15.668,-22.656 8.007,-3.834 13.927,-3.486 20.889,-5.229 6.964,-1.743 10.445,-4.182 10.445,-8.714 0,-4.531 -8.006,-6.971 -13.926,-6.971 -9.748,0 -24.023,6.622 -31.335,12.2 v -22.657 c 5.92,-3.137 20.89,-6.972 33.076,-6.972 22.282,0 36.557,10.457 36.557,27.886 C 19.149,-8.715 10.794,-3.486 0,0" /></g><g
           transform="translate(466.3555,114.1309)"
           id="g88"><path
             id="path90"
             style="fill:#ffffff;fill-opacity:1;fill-rule:nonzero;stroke:none"
             d="m 0,0 -14.057,43.697 h -15.812 v -66.956 h 10.542 V 31.362 L -3.514,-23.259 H 3.514 L 19.328,31.362 V -23.259 H 29.87 V 43.697 H 14.057 Z" /></g><g
           transform="translate(413.6436,110.2529)"
           id="g92"><path
             id="path94"
             style="fill:#ffffff;fill-opacity:1;fill-rule:nonzero;stroke:none"
             d="M 0,0 C 0,-5.666 -4.086,-9.835 -10.542,-10.476 -16.997,-9.835 -21.084,-5.666 -21.084,0 V 47.575 H -31.627 V 0 c 0,-13.098 9.884,-20.315 21.085,-20.315 11.201,0 21.085,7.217 21.085,20.315 V 47.575 H 0 Z" /></g><g
           transform="translate(357.418,112.0156)"
           id="g96"><path
             id="path98"
             style="fill:#ffffff;fill-opacity:1;fill-rule:nonzero;stroke:none"
             d="m 0,0 -21.085,45.813 h -14.056 v -66.957 h 10.542 V 31.717 L 0,-21.144 H 10.542 V 45.813 L 0,45.813 Z" /></g><path
           id="path100"
           style="fill:#ffffff;fill-opacity:1;fill-rule:nonzero;stroke:none"
           d="m 297.679,90.872 h 10.543 v 66.956 h -10.543 z" /><g
           transform="translate(250.2383,147.2559)"
           id="g102"><path
             id="path104"
             style="fill:#ffffff;fill-opacity:1;fill-rule:nonzero;stroke:none"
             d="M 0,0 H 15.813 V -56.384 H 26.355 V 0 H 42.169 V 10.572 H 0 Z" /></g><g
           transform="translate(222.4111,119.0635)"
           id="g106"><path
             id="path108"
             style="fill:#ffffff;fill-opacity:1;fill-rule:nonzero;stroke:none"
             d="M 0,0 5.864,22.604 11.728,0 Z m -0.286,38.765 -19.327,-66.956 h 12.299 l 4.571,17.62 h 17.214 l 4.571,-17.62 H 31.341 L 12.014,38.765 Z" /></g><g
           transform="translate(222.4111,119.0635)"
           id="g110"><path
             id="path112"
             style="fill:#000000;fill-opacity:1;fill-rule:nonzero;stroke:none"
             d="M 0,0 H 11.728 L 5.864,22.604 Z" /></g><g
           transform="translate(178.1987,157.8281)"
           id="g114"><path
             id="path116"
             style="fill:#ffffff;fill-opacity:1;fill-rule:nonzero;stroke:none"
             d="m 0,0 h -10.542 v -66.956 h 33.384 v 10.571 l -22.842,0 z" /></g><g
           transform="translate(136.0293,127.873)"
           id="g118"><path
             id="path120"
             style="fill:#ffffff;fill-opacity:1;fill-rule:nonzero;stroke:none"
             d="M 0,0 H -8.785 V 19.383 H 0 c 7.907,0 10.103,-3.965 10.103,-10.132 C 10.103,3.084 5.271,0 0,0 m 5.271,29.955 h -24.599 v -66.956 h 10.543 v 26.43 H 3.514 c 9.664,0 18.45,7.928 18.45,18.501 0,10.572 -3.954,22.025 -16.693,22.025" /></g><g
           transform="translate(136.0293,147.2559)"
           id="g122"><path
             id="path124"
             style="fill:#000000;fill-opacity:1;fill-rule:nonzero;stroke:none"
             d="M 0,0 H -8.785 V -19.383 H 0 c 5.271,0 10.103,3.084 10.103,9.251 C 10.103,-3.965 7.907,0 0,0" /></g></g></g></g></svg>