<?xml version="1.0" encoding="UTF-8" standalone="no"?>
<svg
   version="1.1"
   width="390.62939"
   height="107.7662"
   id="svg7"
   viewBox="0 0 390.62939 107.7662"
   sodipodi:docname="e90c02d97ff1e73288a8e5dd3fb5cf10.cdr"
   xmlns:inkscape="http://www.inkscape.org/namespaces/inkscape"
   xmlns:sodipodi="http://sodipodi.sourceforge.net/DTD/sodipodi-0.dtd"
   xmlns="http://www.w3.org/2000/svg"
   xmlns:svg="http://www.w3.org/2000/svg">
  <defs
     id="defs11" />
  <sodipodi:namedview
     id="namedview9"
     pagecolor="#ffffff"
     bordercolor="#666666"
     borderopacity="1.0"
     inkscape:pageshadow="2"
     inkscape:pageopacity="0.0"
     inkscape:pagecheckerboard="0" />
  <g
     id="Layer1000"
     transform="translate(-102.328,-367.0817)">
    <path
       d="m 471.7967,367.1321 c 2.8498,-0.0582 5.7035,-0.0155 8.5533,-0.0233 -0.008,0.4298 -0.0155,0.8596 -0.0155,1.2893 -1.2893,-0.004 -2.5788,-0.008 -3.8643,0.004 0,3.175 -0.0193,6.35 0.0117,9.5251 -0.3253,0.004 -0.9758,0.008 -1.2971,0.0116 0.004,-3.1827 0.0116,-6.3656 -0.008,-9.5484 -1.119,0.008 -2.2342,0.004 -3.3455,-0.004 -0.008,-0.3137 -0.0271,-0.941 -0.0348,-1.2545 z m 10.6094,-0.0233 c 0.7783,-0.004 1.5604,-0.004 2.3502,0.004 0.9836,3.0861 1.9981,6.1643 3.0977,9.2116 0.8093,-3.1635 2.2149,-6.1333 3.2873,-9.2154 0.6003,-0.004 1.2043,-0.004 1.8161,-0.008 -0.0117,3.6165 -0.008,7.2291 -0.004,10.8455 -0.3136,-0.004 -0.9486,-0.0154 -1.2622,-0.0193 0.0233,-2.9891 0.0155,-5.9746 0.008,-8.9637 -1.1849,2.9814 -2.2147,6.021 -3.3996,9.0025 -0.3253,-0.0155 -0.9797,-0.0465 -1.3049,-0.0659 -0.9177,-3.0628 -2.1218,-6.0365 -2.8963,-9.1419 -0.2593,3.0512 -0.0619,6.1217 -0.12,9.1806 -0.5304,-0.004 -1.0532,-0.004 -1.572,-0.008 0.0193,-3.6088 0.0155,-7.2174 0,-10.8223 z m -222.0182,7.4962 c 4.4606,-2.5285 8.9754,-4.9562 13.4167,-7.5233 0.0271,12.6305 -0.008,25.261 0.0193,37.8916 7.3916,-4.5303 14.9344,-8.8049 22.4268,-13.1727 0.0232,4.3909 -0.0155,8.778 0.0193,13.165 7.2872,-4.4296 14.6324,-8.7701 21.9157,-13.2075 2.7801,-1.8431 5.7732,-3.3184 8.7276,-4.8594 5.1342,-2.8266 10.6248,-5.173 16.4251,-6.1913 2.8149,-0.5112 5.9939,-0.2982 8.2822,1.603 2.4974,2.1102 3.3029,5.5292 3.5081,8.6539 0.2595,4.1779 -0.3097,8.3481 -1.177,12.4254 12.7854,-7.6511 25.8224,-14.8725 38.7201,-22.3261 5.2815,-3.0203 10.5591,-6.0404 15.8366,-9.0683 -0.0232,3.9843 0.0659,7.9724 -0.0464,11.9568 -11.6161,6.4857 -23.1044,13.2075 -34.7089,19.7164 -0.0658,5.9319 -0.0387,11.8639 -0.0116,17.7919 8.3288,-4.8284 16.6691,-9.6336 25.0056,-14.4427 0.0271,3.7289 -0.0543,7.4614 0.0425,11.1902 -0.6891,0.6235 -1.5371,1.0106 -2.3193,1.483 -7.5814,4.4063 -15.2054,8.7315 -22.7598,13.1764 0.031,7.4499 -0.008,14.8958 0.0194,22.3417 11.4263,-6.5321 22.8489,-13.0797 34.2906,-19.5886 0.093,2.8343 -0.1974,5.6764 0.0504,8.5068 1.8043,-1.2622 3.6901,-2.4006 5.5564,-3.5738 0.0697,-13.6683 -0.0155,-27.3405 0.0426,-41.0086 3.2447,-1.638 6.1681,-3.8411 9.2773,-5.7152 3.6746,-2.2186 7.2794,-4.5573 10.9501,-6.7838 5.4325,-2.9389 10.9617,-6.0248 17.1221,-7.0974 2.815,-0.3562 5.9939,-0.3756 8.3248,1.4946 2.8228,2.2535 3.5546,6.0985 3.7327,9.5136 0.333,5.8893 -1.5992,11.6315 -4.2127,16.8278 -2.4704,4.7316 -5.7539,9.0412 -9.6724,12.6615 6.4856,6.083 12.9519,12.1892 19.4144,18.3031 0.9486,0.9873 2.0986,1.785 2.9311,2.8846 -5.1614,2.8615 -10.2687,5.8119 -15.4106,8.7044 -6.687,-6.4701 -13.4863,-12.828 -20.1308,-19.3408 -2.7724,1.5372 -5.6221,2.9272 -8.4178,4.4063 0.0271,10.4623 -0.0309,20.9246 0,31.3867 -4.6193,2.7143 -9.316,5.3047 -13.9198,8.0422 -0.0233,-10.2299 0.0116,-20.4636 -0.0195,-30.6935 -11.2211,6.6908 -22.6397,13.041 -33.9498,19.5808 -6.4585,3.7056 -12.9248,7.4033 -19.3834,11.1089 0,-22.5429 0,-45.0898 0,-67.6327 -0.0348,-1.4056 0.0851,-2.815 -0.0852,-4.2089 -2.5594,1.6533 -5.2118,3.1634 -7.7673,4.8167 -1.7928,4.1432 -4.0269,8.1197 -6.9154,11.6045 -5.1614,6.2766 -11.527,11.5542 -18.5702,15.5927 -2.5711,1.8391 -5.506,3.055 -8.3094,4.4799 -0.0387,9.1806 -0.0349,18.3611 -0.004,27.5418 -4.4373,2.6677 -8.9831,5.1536 -13.4243,7.8137 -0.0155,-23.8749 0.008,-47.7538 -0.0117,-71.6325 -2.9813,1.7037 -5.9551,3.4229 -8.9482,5.1072 -0.0155,19.5731 -0.031,39.1423 0.008,58.7116 -4.4568,2.6523 -9.0025,5.1497 -13.4476,7.8253 -0.0348,-23.9678 0.0426,-47.9318 -0.0386,-71.8958 -2.9777,1.8006 -5.9514,3.6049 -8.9522,5.3628 -0.0697,11.3567 0.0154,22.7133 -0.0426,34.0699 -4.4954,2.4239 -8.9018,5.0027 -13.4049,7.4111 -0.0194,-11.2328 0.0386,-22.4616 -0.0271,-33.6943 -9.9318,5.7848 -19.9177,11.4728 -29.8341,17.2807 0.0271,11.2406 0.0271,22.481 0,33.7216 -4.4682,2.5517 -8.9172,5.1304 -13.3662,7.7092 0.0311,-25.0985 -0.0271,-50.1969 0.0271,-75.2955 4.4684,-2.5284 8.9173,-5.0956 13.3469,-7.6898 0.0233,9.8737 -0.004,19.7473 0.0117,29.621 9.9549,-5.6997 19.844,-11.5076 29.8146,-17.1763 0.058,-9.8853 0.0154,-19.7783 0.0231,-29.6675 z m 174.2102,24.386 c -2.3618,1.3746 -4.8167,2.6059 -7.0277,4.2283 0.0426,6.9464 -0.0116,13.889 0.0271,20.8353 5.1963,-2.1953 9.9046,-5.3666 14.3226,-8.8436 3.4617,-2.7531 6.4237,-6.4547 7.1672,-10.9269 0.3407,-2.4743 0.7667,-5.2001 -0.3912,-7.531 -0.9872,-1.7812 -3.2988,-2.0367 -5.1033,-1.6263 -3.1866,0.7821 -6.1642,2.2341 -8.9947,3.8642 z M 328.675,397.8642 c -3.4925,1.5721 -6.8651,3.4191 -10.0285,5.5836 -0.004,8.0654 -0.0426,16.1346 0.0193,24.2001 7.051,-3.4229 14.0168,-7.5853 18.9032,-13.8618 2.8847,-3.6939 4.2167,-8.4837 3.9534,-13.134 -0.1123,-1.9901 -1.15,-4.2089 -3.2486,-4.7083 -3.3223,-0.7551 -6.5631,0.7472 -9.5988,1.9204 z"
       style="fill:#231f20;fill-rule:evenodd"
       id="path2" />
    <path
       d="m 102.328,408.3187 c 21.1219,-12.1039 42.2244,-24.2389 63.3657,-36.3041 -0.0464,6.0094 0.1007,12.0382 -0.0735,18.036 -10.4932,6.1371 -21.0484,12.1852 -31.588,18.2488 -0.0582,15.0273 -0.0194,30.0546 -0.0194,45.082 -10.5319,6.1565 -21.1413,12.1814 -31.6693,18.3456 -0.031,-21.1373 0,-42.2708 -0.0155,-63.4083 z m 38.0349,3.4422 c 21.0755,-12.313 42.2864,-24.4053 63.3929,-36.6719 0.0386,21.122 0.004,42.2477 0.0193,63.3696 -21.1142,12.1582 -42.2632,24.2505 -63.3967,36.37 -0.008,-21.0213 0.0232,-42.0464 -0.0155,-63.0677 z"
       style="fill:#7a297e;fill-rule:evenodd"
       id="path4" />
  </g>
</svg>
