<svg xmlns="http://www.w3.org/2000/svg" viewBox="0 0 4554.15647 1666.66663" width="273.2494" height="100">
<g id="Cooler-Master_x5F_logo_x5F_190212_x5F_white_x5F_slogan-right">
<title>Cooler Master logo</title>
<rect style="fill:none" width="4554.15647" height="1666.66663"/>
<path style="fill:#FFFFFF;" d="M2263.5744,713.46951v44.9169h-19.19959v156.4799h19.19959V959.7832h-96.35147V914.86631h19.56132v-98.5235H2186.06L2134.25542,959.7832h-36.57985l-56.15023-143.44039h-.72428v98.5235H2061.811V959.7832h-93.45436V914.86631h19.56215V758.38641h-19.56215v-44.9169h89.83378L2119.40974,864.156h.72428l55.41689-150.68649Zm20.98517,123.51734V783.742c26.44157-5.4358,54.33171-8.69465,77.15188-8.69465,47.45146,0,73.893,11.22922,73.893,61.21525v78.60374h19.1996V959.7832h-73.53131V941.67043h-.72428c-15.21564,16.30248-32.95926,22.82018-54.33088,21.37162-31.88061-.36173-52.52883-23.18273-52.52883-55.78357,0-48.17574,44.55434-57.9564,75.71156-57.9564h31.87243v-9.77654c0-16.30248-11.59507-19.56133-32.235-19.56133a134.48355,134.48355,0,0,0-19.56133,1.44774v15.5749Zm96.7132,44.55434h-23.1819c-16.665,0-30.4247,2.53457-30.4247,20.2856,0,14.12635,11.94939,19.92388,23.18273,19.92388,11.94856,0,24.26873-4.71152,30.42387-9.41893Zm84.00748-175.31777h73.893V860.893l49.99427-37.30824h-13.40536v-44.9169h94.17781v44.9169h-19.923l-35.13218,26.08314,44.55434,65.19838h14.12222V959.7832H2579.3827V914.86631h11.59507l-22.0959-35.498-29.70866,22.821v12.677h19.56133V959.7832h-93.45429V914.86631h19.56208v-163.726h-19.56208Zm272.74282,175.31777c1.44856,22.45844,17.751,36.94651,46.36545,36.94651,14.49219,0,31.87326,0,56.142-7.242l6.52593,43.46833c-24.63128,6.87943-47.08973,8.69054-70.63418,8.69054-71.00415,0-95.99717-36.58479-95.99717-94.17864,0-57.59468,24.993-94.17864,95.63462-94.17864,78.60043,0,84.39393,51.072,76.79015,106.49387Zm0-33.68767h61.21937c2.53457-17.38437-1.81853-31.149-26.449-31.149C2751.421,816.70454,2739.83418,827.93376,2738.02307,847.85352Zm216.947,67.01279V758.38641h-19.56133v-44.9169H3032.122v44.9169h-19.55309v156.4799H3032.122V959.7832h-96.71329V914.86631Zm99.59385-97.79922H3031.382V781.93086l23.18191-3.263,6.51851-50.7103h47.82143v50.7103h42.73581v38.3992h-42.73581V898.9305c0,13.76379,7.242,21.37161,23.90618,21.37161a89.17245,89.17245,0,0,0,15.57079-1.81441l5.06913,41.65805a295.06345,295.06345,0,0,1-39.477,3.25885c-43.10578,0-59.40908-18.10947-59.40908-55.056ZM3398.657,914.86631V959.7832h-96.35065V914.86631h19.56132V885.52844l-64.47821-127.142h-22.09672v-44.9169H3342.515v44.9169h-24.26874l36.58067,74.25476h.72437l36.22627-74.25476h-23.54519v-44.9169h97.07567v44.9169h-18.83787l-67.37452,127.142v29.33787Zm34.02962-45.64035c0-57.59468,24.63129-94.17864,90.19551-94.17864s90.19551,36.584,90.19551,94.17864c0,57.59385-24.63129,94.17864-90.19551,94.17864S3432.68662,926.81981,3432.68662,869.226Zm57.598,0c0,31.15227,7.242,49.26174,32.59754,49.26174,25.35474,0,32.605-18.10947,32.605-49.26174,0-31.1531-7.25022-49.26175-32.605-49.26175C3497.52657,819.96421,3490.28459,838.07286,3490.28459,869.226Zm130.74283-90.55807h73.893V889.51156c0,19.56133,9.42233,28.97614,25.35474,28.97614,11.95762,0,23.54528-5.79341,31.8815-10.50082V823.58479H3731.1469v-44.9169h75.34067V914.86631h19.1996V959.7832h-73.53048V937.32475h-.72428c-14.85392,16.29836-33.69169,26.07985-56.512,26.07985-36.218,0-54.33171-24.26956-54.33171-61.21525V823.58479h-19.56132Zm215.14492,0h73.8922v28.98026h.72428a70.74584,70.74584,0,0,1,60.13337-32.60083v51.072c-23.18273,0-46.36546,3.98725-60.85765,10.8675v77.87946H3930.351V959.7832h-94.17863V914.86631h19.56132V823.58479h-19.56132Zm256.80214,58.319V820.68767a165.78457,165.78457,0,0,0-29.70042-2.53457c-16.30248,0-22.82018,5.43169-22.82018,11.59177,0,6.87943,6.15515,9.41811,24.63046,13.76379,32.59754,7.2461,79.32472,15.21235,79.32472,59.76669,0,41.65805-29.33869,60.12925-73.893,60.12925-30.06215,0-63.02966-3.25885-84.76382-8.69054v-53.249h44.91689v16.29836a208.84356,208.84356,0,0,0,33.32924,2.53868c18.10535,0,26.079-6.52181,26.079-13.04363,0-7.60453-10.50907-9.77654-26.44158-12.67778-42.38139-7.242-77.52184-21.3675-77.52184-63.38809,0-41.29549,29.34693-56.14529,73.90127-56.14529,30.06215,0,56.142,3.25885,77.87616,8.69465v53.24488Zm127.8457,67.73706V959.7832h-54.33077V904.72391ZM408.57132,706.78943C406.65262,637.85632,430.11514,573.26526,489.044,559.99c38.43237-8.649,76.69354,24.31848,84.88672,73.42853l-53.62031,9.993c-3.81958-18.94928-14.66256-30.959-30.48889-26.51831-24.54791,6.88965-33.31579,40.47-32.46225,82.46033.84168,41.41619,10.582,68.59906,34.60743,66.89849,15.77938-1.12042,30.31472-17.54473,32.87417-40.21734,0,0,41.953-3.46533,51.4787-4.31592,0,51.25464-38.29919,97.99072-83.63068,97.99072C442.07556,819.70953,410.455,773.84131,408.57132,706.78943Zm371.49362-60.8327c-4.42883-99.97,20.01447-193.05042,83.1629-217.13947,65.76972-25.08527,112.85352,65.82443,114.84772,180.6109,2.40015,139.51746-39.50641,210.28131-102.3446,210.28131-56.23511.00006-91.14154-71.51574-95.66608-173.75274Zm62.46082-6.49555c2.05774,61.09961,14.01519,105.691,34.05285,103.73792,22.156-2.18854,33.86737-55.86713,32.07355-126.16382-1.84326-72.17493-16.5058-118.6673-38.99823-105.38019-15.937,9.41217-29.46777,58.34808-27.12823,127.80609Zm-256.59662,34.2359c-3.05341-86.91,23.88574-159.819,75.52972-177.13727,57.7038-19.39035,99.5409,53.911,101.33118,148.17481,2.02631,107.444-30.41278,174.96655-92.363,174.96655C619.76147,819.70117,588.95343,759.24591,585.92914,673.69708Zm53.385-9.37719c1.54126,52.74359,13.04278,91.4577,32.4046,89.832,20.60645-1.72968,32.895-45.53717,31.57721-102.66321-1.34692-58.22632-15.79187-97.87476-36.65033-90.99347-13.98383,4.6203-29.05524,44.07739-27.33154,103.82477Zm435.46637-230.25828-71.08362-23.86016v405.3348h162.089v-72.8775l-91.00537-6.61383ZM1488.80774,720.6394l31.19983,94.89685H1469.6814l-27.804-89.74823-19.85754-2.28723v92.03546h-59.09119V529.40247l94.7085,31.83575c38.21728,12.83417,60.62878,53.20245,60.62878,96.17657,0,39.46607-15.50952,57.18439-29.45813,63.22461ZM1472.53149,647.788c0-18.23779-9.33374-31.52191-22.68444-35.05975l-27.82715-7.37762v62.0542l27.82715,5.198C1463.19775,675.09033,1472.53149,666.03772,1472.53149,647.788ZM1003.6969,930.01782l49.47327-3.2995.0404,308.26374,67.67066-22.55372V921.89185l44.43457-3.65436v-72.575H1003.6969Zm182.324,260.71265,156.33-52.09387v-60.61512l-91.78284,24.1128v-63.68579l80.89356-16.1164V960.51563L1250.568,970.958V913.17328l91.78284-6.44324v-61.0675h-156.33Zm303.08887-195.36676,30.89783,84.13837-50.53479,16.83032-27.47949-80.06317-19.89258,4.35034V1112.098l-59.172,19.70056v-286.136h94.90576c38.351,0,60.87842,33.01922,60.87842,76.22339.00012,39.68359-15.59094,62.72467-29.60315,73.47784ZM1472.752,927.60638c0-18.34-9.35705-28.52679-22.754-27.58349l-27.89733,1.96149v62.30743l27.89733-4.13043C1463.395,958.17908,1472.752,945.94049,1472.752,927.60638Zm-748.754-81.94378L790.94873,1202.978l-62.30145-21.72986-8.2948-53.74756-56.10492-15.97729-7.16541,45.25012-51.32177-17.69275,53.5448-293.41809Zm-13.46661,212.12158L690.662,936.88788l-18.343,112.20379ZM494.93268,966.28839,471.43805,845.66254H414.03024v227.14068l40.10141,14.01819V943.2063L484.548,1097.25256l17.269,5.99622,39.18127-147.25769V1116.823l52.60748,18.25268V845.66254H525.38947Zm1104.09369-245.7453V963.723c0,122.768-18.645,158.55054-131.20838,207.58814-39.06469,16.89978-98.06921,46.19043-248.8153,103.25818-66.36414,25.15185-166.17481,58.7666-253.37549,58.7666-86.75843,0-186.543-33.61475-253.13709-58.7666-150.55481-57.06788-209.5473-86.3584-248.58594-103.25818C351.33469,1122.27356,332.458,1086.491,332.458,963.723V720.54309c0-132.31641,31.66159-184.81329,142.50665-235.57815,22.7659-10.40192,49.01141-23.4245,192.62366-76.14194,164.63421-60.51056,247.066-75.49225,298.03888-75.49225,51.19995,0,133.62585,14.98172,298.47754,75.49225,143.61816,52.71744,169.86071,65.74,192.63855,76.14194C1567.58826,535.7298,1599.02637,588.22675,1599.02637,720.54309ZM1563.676,704.2757c0-120.59668-54.22132-161.19147-131.87537-193.50037-27.33972-11.48727-38.63562-18.86191-176.36218-69.85266-113.22559-42.06351-216.91358-73.51294-289.81128-73.51294-72.45014,0-176.12976,31.4494-289.58722,73.51294-137.509,50.99072-148.80188,58.36539-176.342,69.85266-77.45383,32.309-131.67212,72.90369-131.67212,193.50037V973.04187c0,93.2605,21.4743,128.84863,98.4787,163.33362,64.405,28.63733,70.93268,31.68188,204.12579,83.95288,84.15259,32.96985,196.29822,76.57471,294.99683,76.57471,99.14624,0,211.07129-43.60474,295.23877-76.57471,133.39575-52.271,139.91455-55.31555,204.32312-83.95288,77.00976-34.485,98.48694-70.07312,98.48694-163.33368ZM857.51929,953.2135c-1.0188-20.24927,13.70733-34.01245,28.17547-32.47119,10.71515,1.29163,24.71613,12.72064,22.78015,40.28686l70.59919,6.9051c3.75244-71.32734-26.32453-125.00593-91.03449-126.11152-50.155-.65026-98.59753,42.53016-97.06225,107.60328,2.51672,116.5625,129.60589,97.97937,130.51178,194.71948.104,14.50561-8.00769,29.20263-22.911,27.70532-18.76679-3.567-32.88367-16.58362-34.14319-56.43005l-66.048-16.1919c-.66156,60.91419,21.3263,125.26685,85.79847,139.22449,62.64917,13.74536,120.10333-36.83643,106.50061-123.80408C974.697,1013.51483,860.398,1007.46326,857.51929,953.2135Zm328.548-137.67725h156.28357V754.38733l-91.78284-6.237V685.74188l76.15149,10.25391V633.91193L1250.568,618.28888V559.78674l91.78284,24.35651V522.356l-156.33-51.88172Z"/>
</g>
</svg>