<svg  xmlns="http://www.w3.org/2000/svg" viewBox="0 0 200 35">
<style type="text/css">
	.st0{fill:#000;}
</style>
<g id="Ebene_1_xA0_Bild">
</g>
<g id="Isolationsmodus">
	<path class="st0" d="M194.7,25.8c1.7,0,3.5,0,5.2,0c-0.3,4.6-2.7,7.5-6.6,8.5c-2.2,0.6-4.7,0.3-6.5-0.4c-3.5-1.4-5.7-4.5-6.3-8.8
		c-0.3-2.3,0-4.8,0.7-6.6c1.3-3.4,4.2-6.3,8.7-6.5c3-0.2,5.3,0.8,6.9,2.1c1.7,1.4,2.9,3.1,3.1,6c-1.7,0.1-3.5,0-5.3,0
		c-0.2-1.4-0.9-2.3-1.9-2.9c-1.1-0.5-2.8-0.7-4-0.2c-2.1,0.9-3.2,3.5-3.1,6.6c0.1,3,1.2,5.4,3.6,6c1.5,0.4,3,0,3.9-0.7
		C194.1,28.3,194.6,27.3,194.7,25.8z"/>
	<path class="st0" d="M178.6,29.4c0,1.6,0,3.2,0,4.8c-5.5,0-11.1,0-16.6,0c0-7.2,0-14.4,0-21.6c0,0,0-0.1,0-0.1c5.4,0,10.8,0,16.2,0
		c0,1.5,0,3,0,4.4c-3.7,0-7.3,0-11,0c0,1.3,0,2.6,0,3.9c3.3,0.1,6.7,0,10.1,0c0,1.4,0,2.9,0,4.3c-3.4,0-6.7,0-10.1,0
		c0,1.4,0,2.8,0,4.3C171.1,29.4,174.9,29.4,178.6,29.4z"/>
	<path class="st0" d="M158.3,12.4c0,1.6,0,3.2,0,4.8c-2,0-4.1,0-6.1,0c0,5.7,0,11.3,0,17c-1.7,0-3.5,0-5.2,0c0-5.6,0-11.3,0-16.9
		c-2-0.1-4.1,0-6.1,0c0-1.6,0-3.1,0-4.7c0,0,0-0.1,0-0.1C146.7,12.4,152.5,12.4,158.3,12.4z"/>
	<path class="st0" d="M138.3,12.4c0,1.5,0,3,0,4.4c-3.3,0-6.5,0-9.8,0c-0.1,1.5,0,3.1,0,4.6c2.8,0,5.6,0,8.5,0c0,1.4,0,2.9,0,4.3
		c-2.8,0-5.6,0-8.5,0c0,2.8,0,5.6,0,8.4c-1.8,0-3.5,0-5.3,0c0-7.2,0-14.4,0-21.6c0,0,0-0.1,0-0.1C128.3,12.4,133.3,12.4,138.3,12.4z
		"/>
	<path class="st0" d="M118.8,29.4c0,1.6,0,3.2,0,4.8c-5.5,0.1-11,0-16.6,0c0-7.2,0-14.4,0-21.6c0,0,0-0.1,0-0.1c5.4,0,10.8,0,16.2,0
		c0,1.5,0,3,0,4.4c-3.7,0-7.3,0-11,0c0,1.3,0,2.6,0,3.9c3.3,0.1,6.7,0,10.1,0c0,1.4,0,2.9,0,4.3c-3.3,0-6.7,0-10,0
		c-0.1,1.4,0,2.8,0,4.2C111.2,29.4,115,29.4,118.8,29.4z"/>
	<path class="st0" d="M97.1,12.4c0,7.2,0,14.5,0,21.7c-1.7,0-3.5,0-5.2,0c-0.1-7.2,0-14.4,0-21.6c0,0,0-0.1,0-0.1
		C93.6,12.4,95.3,12.4,97.1,12.4z"/>
	<path class="st0" d="M86.8,12.4c0,7.2,0,14.5,0,21.7c-1.7,0-3.6,0-5.2,0c0-3,0-6,0-9c-2.4,0-4.8,0-7.1,0c0,3,0,6.1,0,9
		c-1.7,0-3.5,0-5.2,0c0-7.2,0-14.4,0-21.6c0,0,0-0.1,0-0.1c1.7,0,3.5,0,5.2,0c0,2.6,0,5.3,0,7.9c2.3,0.1,4.8,0,7.1,0
		c0-2.6,0-5.3,0-7.9C83.3,12.4,85,12.4,86.8,12.4z"/>
	<path class="st0" d="M64.9,20.1c-1.7,0-3.5,0-5.2,0c-0.2-1.4-0.9-2.3-2-2.8c-1.1-0.5-2.7-0.7-4-0.2c-2.1,0.9-3.2,3.5-3.1,6.6
		c0.1,3,1.2,5.4,3.6,6c1.5,0.4,3,0,3.9-0.7c0.9-0.7,1.4-1.7,1.6-3.2c1.7,0,3.5,0,5.2,0c-0.3,4.6-2.7,7.5-6.6,8.5
		c-2.2,0.6-4.7,0.3-6.5-0.4c-3.5-1.4-5.7-4.5-6.3-8.8c-0.3-2.3,0-4.8,0.7-6.6c1.3-3.4,4.2-6.3,8.7-6.5c3-0.2,5.3,0.8,6.9,2.1
		C63.6,15.5,64.7,17.3,64.9,20.1z"/>
	<path class="st0" d="M44.2,15.9c0.3,1,0.1,2.2-0.6,2.9c-0.6,0.7-1.5,0.9-2.8,0.9c-1.1,0-2.5,0-3.7-0.1c0.8,1.6,1.8,3.1,2.7,4.6
		c0.9,1.5,1.8,3.1,2.7,4.6c0.5,0.8,1,1.5,1,2.6c0,1.1-0.6,1.9-1.4,2.3c-0.8,0.4-1.9,0.4-3.2,0.4c-10.9,0-21.8,0.1-32.8,0.1
		c-1.3,0-2.6,0.1-3.6-0.1c-1.1-0.2-1.8-0.6-2.3-1.4c-0.5-0.8-0.4-2,0.1-3c0.4-0.8,0.9-1.6,1.3-2.3C6.1,19.7,10.4,12,14.9,4.2
		c0.4-0.7,0.8-1.6,1.3-2.3c0.5-0.8,1.3-1.3,2.3-1.5c1.9-0.2,2.6,1.3,3.2,2.5c2.1,3.6,4.3,7.2,6.3,10.7c3.7,0,7.3,0.1,11.1,0.1
		c1.2,0,2.6-0.1,3.5,0.2C43.4,14.2,44,14.9,44.2,15.9z M43,17.7c0.5-1,0.1-2.2-0.8-2.6c-0.5-0.2-1.1-0.2-1.8-0.2
		c-6.5,0-13-0.1-19.4-0.1c-1,0-2.1-0.1-3,0c0,0,0,0-0.1,0c-3.1,0.9-5.4,2.5-6,5.6c-0.4,1.8,0,3.6,0.6,4.9c0.6,1.4,1.4,2.4,2.7,3.2
		c1.3,0.8,3,1.1,4.7,0.8c1.6-0.3,2.9-1.1,3.9-1.9c1-0.9,1.8-2.2,2.1-3.7c0.4-1.7,0.1-3.5-0.4-5c1.7,0,3.5,0,5.2,0
		c1.9,3.2,3.9,6.6,5.8,9.9c0.3,0.5,0.7,1,0.8,1.4c0.3,0.9,0.1,1.9-0.3,2.6c-0.1,0.1-0.2,0.3-0.1,0.4c0.6,0.1,1.3,0,2,0.1
		c1.1,0,2.1,0.1,2.7-0.3c0.9-0.7,0.4-2.1-0.1-2.9c-2.2-3.6-4.5-7.5-6.5-11c1.7,0,3.4,0,5.1,0c0.6,0,1.2,0,1.6-0.1
		C42.4,18.4,42.8,18.1,43,17.7z"/>
</g>
</svg>
