<svg xmlns="http://www.w3.org/2000/svg" fill="#000" viewBox="0.02 0.38 44.46 33.84">
    <path class="st0" d="M44.35,15.9c0.3,1,0.1,2.2-0.6,2.9c-0.6,0.7-1.5,0.9-2.8,0.9c-1.1,0-2.5,0-3.7-0.1c0.8,1.6,1.8,3.1,2.7,4.6     c0.9,1.5,1.8,3.1,2.7,4.6c0.5,0.8,1,1.5,1,2.6c0,1.1-0.6,1.9-1.4,2.3c-0.8,0.4-1.9,0.4-3.2,0.4c-10.9,0-21.8,0.1-32.8,0.1     c-1.3,0-2.6,0.1-3.6-0.1c-1.1-0.2-1.8-0.6-2.3-1.4c-0.5-0.8-0.4-2,0.1-3c0.4-0.8,0.9-1.6,1.3-2.3C6.1,19.7,10.4,12,14.9,4.2     c0.4-0.7,0.8-1.6,1.3-2.3c0.5-0.8,1.3-1.3,2.3-1.5c1.9-0.2,2.6,1.3,3.2,2.5c2.1,3.6,4.3,7.2,6.3,10.7c3.7,0,7.3,0.1,11.1,0.1 c1.2,0,2.6-0.1,3.5,0.2C43.4,14.2,44,14.9,44.2,15.9z M43,17.7c0.5-1,0.1-2.2-0.8-2.6c-0.5-0.2-1.1-0.2-1.8-0.2     c-6.5,0-13-0.1-19.4-0.1c-1,0-2.1-0.1-3,0c0,0,0,0-0.1,0c-3.1,0.9-5.4,2.5-6,5.6c-0.4,1.8,0,3.6,0.6,4.9c0.6,1.4,1.4,2.4,2.7,3.2     c1.3,0.8,3,1.1,4.7,0.8c1.6-0.3,2.9-1.1,3.9-1.9c1-0.9,1.8-2.2,2.1-3.7c0.4-1.7,0.1-3.5-0.4-5c1.7,0,3.5,0,5.2,0     c1.9,3.2,3.9,6.6,5.8,9.9c0.3,0.5,0.7,1,0.8,1.4c0.3,0.9,0.1,1.9-0.3,2.6c-0.1,0.1-0.2,0.3-0.1,0.4c0.6,0.1,1.3,0,2,0.1     c1.1,0,2.1,0.1,2.7-0.3c0.9-0.7,0.4-2.1-0.1-2.9c-2.2-3.6-4.5-7.5-6.5-11c1.7,0,3.4,0,5.1,0c0.6,0,1.2,0,1.6-0.1     C42.4,18.4,42.8,18.1,43,17.7z"/>
</svg>