<svg xmlns="http://www.w3.org/2000/svg" xmlns:xlink="http://www.w3.org/1999/xlink" xml:space="preserve" version="1.0" viewBox="89.04 142 416.86 351.12">
    <style type="text/css">
        .st0 {
            fill: #B51B1F;
        }

        .st1 {
            fill: #D61518;
        }

        .st2 {
            fill: #881B20;
        }

    </style>
    <!-- logo -->
    <g>
        <path class="st0" d="M167.9,429.5c4,8.6,10.2,18.4,15.8,23.1l-6.1-17.3c-10-33.7-11.8-70.5-2.2-104.5c2.9-10.3,7.4-22.5,12.5-32         l1.3-1.9c3.3,64.9,25.3,116.8,74.5,154.7c23,17.6,49.6,30.1,77.9,36.6c24.3,5.5,51.7,7.3,76.3,0.6c8.6-2.3,13.3-4.8,20.1-8.5         c-2.4,0-17.5,2.1-25.8,2.4c-9.3,0.3-18.7-0.1-28-1c-16-1.6-31.8-5.1-46.9-10.6c-13.4-4.9-26.2-11.5-38-19.5c-14.1-9.3-20-16.2-31-27         c-16.7-16.4-35-50.1-43.1-71.9c-5.7-14.8-9.6-30.3-11.6-46c-1.8-13.7-2-27.6-0.6-41.4c0.5-5.1,3.1-6,5.8-8.6l9.4-9.8         c3.4-2.9,6.7-5.8,10.2-8.8c14-11.9,29.3-22,45.8-30.2c4.3-2.2,8.4-4.1,13-6c2.3-1,4.3-1.8,6.8-2.8c1.2-0.5,6.5-1.8,6.5-1.8l-1.4-0.1         c34.4-10.3,62-13.7,98.4-6c21.2,4.4,41.4,12.7,59.7,24.3c6.2,4,10.8,7.9,16,11.8c-10-15.5-32.9-32.4-48.6-41.1         c-46.5-25.6-99.2-24.1-148.5-5.9c-39.8,14.7-52.6,28.8-58.9,31.6c2.1-8.8,17.1-31.3,22.8-38.7c8.9-11.6,19.4-21.9,31.2-30.6         c-8.1,2.2-25.3,14.2-31.9,19.4c-9.5,7.6-18.2,16.2-25.8,25.7c-11.5,13.9-21,32.4-26.7,50.8c-2.6,8.3-4.2,8.3-9.6,16.4         C156.3,308.2,140.7,371.3,167.9,429.5z" />

        <path class="st1" d="M117.2,213.5c-16.5,2.4-30.6,17.1-27.8,36.6c2.7,17.7,19.3,29.9,37,27.3c16.5-2.2,30.6-17.4,27.9-36.7         C151.5,223,135,210.8,117.2,213.5L117.2,213.5z" />

        <path class="st2" d="M195.4,142.3c-10,1.7-18.7,11.1-16.8,23c1.9,11.1,12.4,18.6,23.5,16.7c11-1.7,18.5-12,16.8-23.1c0,0,0,0,0-0.1         C217,147.8,206.5,140.4,195.4,142.3z M185.7,256.9l-1.1,2.8c-11.7,21-21,43.5-26.1,66.6l-1.6,3.9l-0.9,1.2c-0.2,0.4-0.6,1.4-0.9,2.1         c-9.6,22.2-15.1,45.9-16.1,70c-10.9-25.2-1.7-63.3,7.6-85.9c7.2-17.5,16.9-34,28.8-48.7L185.7,256.9L185.7,256.9z M310.3,197.5         c0,0-5.4,1.3-6.5,1.8c-2.5,1-4.5,1.8-6.8,2.8c-4.6,1.9-8.7,3.8-13,6c-16.4,8.2-31.8,18.3-45.8,30.2c-3.5,3-6.8,5.9-10.2,8.8         l-9.4,9.8l16.6-9.6c44.4-23.8,105.6-32.2,153.9-19.9c38.9,9.9,73.4,33,96.4,61.6c6.4,8,15.8,21.1,20.4,32.2         c-1.6-16.2-16-41.9-25-54.7c-22.6-32.3-57.2-53.7-97.3-63.2C359.1,197.3,336.4,196.3,310.3,197.5L310.3,197.5z" />
    </g>
</svg>
