<svg xmlns:svg="http://www.w3.org/2000/svg" xmlns="http://www.w3.org/2000/svg" xmlns:xlink="http://www.w3.org/1999/xlink" version="1.1" id="svg2" x="0px" y="0px" enable-background="new 35.188 31.512 351.46 258.785" xml:space="preserve" viewBox="56.78 31.51 248.9 164.7">
    <path id="path21" fill="#77B900" d="M82.211,102.414c0,0,22.504-33.203,67.437-36.638V53.73  c-49.769,3.997-92.867,46.149-92.867,46.149s24.41,70.565,92.867,77.026v-12.804C99.411,157.781,82.211,102.414,82.211,102.414z   M149.648,138.637v11.726c-37.968-6.769-48.507-46.237-48.507-46.237s18.23-20.195,48.507-23.47v12.867  c-0.023,0-0.039-0.007-0.058-0.007c-15.891-1.907-28.305,12.938-28.305,12.938S128.243,131.445,149.648,138.637 M149.648,31.512  V53.73c1.461-0.112,2.922-0.207,4.391-0.257c56.582-1.907,93.449,46.406,93.449,46.406s-42.343,51.488-86.457,51.488  c-4.043,0-7.828-0.375-11.383-1.005v13.739c3.04,0.386,6.192,0.613,9.481,0.613c41.051,0,70.738-20.965,99.484-45.778  c4.766,3.817,24.278,13.103,28.289,17.168c-27.332,22.883-91.031,41.329-127.144,41.329c-3.481,0-6.824-0.211-10.11-0.528v19.306  h156.032V31.512H149.648z M149.648,80.656V65.777c1.446-0.101,2.903-0.179,4.391-0.226c40.688-1.278,67.382,34.965,67.382,34.965  s-28.832,40.043-59.746,40.043c-4.449,0-8.438-0.715-12.028-1.922V93.523c15.84,1.914,19.028,8.911,28.551,24.786l21.18-17.859  c0,0-15.461-20.277-41.524-20.277C155.021,80.172,152.31,80.371,149.648,80.656"/>
</svg>