<?xml version="1.0" encoding="UTF-8" standalone="no"?>
<svg
   xmlns:dc="http://purl.org/dc/elements/1.1/"
   xmlns:cc="http://creativecommons.org/ns#"
   xmlns:rdf="http://www.w3.org/1999/02/22-rdf-syntax-ns#"
   xmlns:svg="http://www.w3.org/2000/svg"
   xmlns="http://www.w3.org/2000/svg"
   viewBox="0 0 365.10666 52.040001"
   height="52.040001"
   width="365.10666"
   xml:space="preserve"
   id="svg2"
   version="1.1"><metadata
     id="metadata8"><rdf:RDF><cc:Work
         rdf:about=""><dc:format>image/svg+xml</dc:format><dc:type
           rdf:resource="http://purl.org/dc/dcmitype/StillImage" /></cc:Work></rdf:RDF></metadata><defs
     id="defs6" /><g
     transform="matrix(1.3333333,0,0,-1.3333333,0,52.04)"
     id="g10"><g
       transform="scale(0.1)"
       id="g12"><path
         id="path14"
         style="fill:#142239;fill-opacity:1;fill-rule:nonzero;stroke:none"
         d="m 2652.91,367.684 h -18.07 v 6.074 h 43.32 v -6.074 h -18.06 v -48.11 h -7.19 v 48.11" /><path
         id="path16"
         style="fill:#142239;fill-opacity:1;fill-rule:nonzero;stroke:none"
         d="m 2684.31,373.758 h 9.86 l 17.07,-45.535 17.16,45.535 h 9.86 v -54.184 h -6.82 v 45.074 h -0.17 l -16.92,-45.074 h -6.13 l -16.94,45.074 h -0.15 v -45.074 h -6.82 v 54.184" /><path
         id="path18"
         style="fill:#142239;fill-opacity:1;fill-rule:nonzero;stroke:none"
         d="m 194.719,355.711 h -19.602 l 5,19.59 h -17.258 l -4.925,-19.59 h -19.602 l -4.234,-17.129 h 19.582 l -4.969,-19.617 h 17.184 l 4.964,19.617 h 19.567 l 4.293,17.129" /><path
         id="path20"
         style="fill:#142239;fill-opacity:1;fill-rule:nonzero;stroke:none"
         d="m 242.895,231.359 h -30.262 l 7.605,30.309 h -26.55 l -7.575,-30.309 H 155.852 L 149.18,204.91 h 30.285 l -7.629,-30.367 h 26.516 l 7.683,30.367 h 30.149 l 6.711,26.449" /><path
         id="path22"
         style="fill:#142239;fill-opacity:1;fill-rule:nonzero;stroke:none"
         d="m 302.727,150.109 h -30.129 l 7.55,30.215 h -26.46 l -7.645,-30.215 h -30.266 l -6.668,-26.554 30.243,0.039 -7.551,-30.2659 h 26.496 l 7.59,30.2659 h 30.261 l 6.579,26.515" /><path
         id="path24"
         style="fill:#142239;fill-opacity:1;fill-rule:nonzero;stroke:none"
         d="M 108.648,311.477 H 93.8281 l 3.7071,14.796 H 84.5664 L 80.8398,311.477 66,311.441 62.793,298.465 h 14.75 L 73.9063,283.68 h 12.9101 l 3.7656,14.785 h 14.863 l 3.203,13.012" /><path
         id="path26"
         style="fill:#142239;fill-opacity:1;fill-rule:nonzero;stroke:none"
         d="M 45.8711,355.664 H 31.1055 l 3.6914,14.832 H 21.7773 l -3.75,-14.832 H 3.29688 L 0,342.699 h 14.8047 l -3.7109,-14.871 h 13.0625 l 3.6914,14.871 H 42.668 l 3.2031,12.965" /><path
         id="path28"
         style="fill:#142239;fill-opacity:1;fill-rule:nonzero;stroke:none"
         d="M 85.207,216.191 H 70.3086 l 3.8242,14.774 H 61.0508 L 57.3203,216.191 H 42.5586 l -3.2813,-13.015 h 14.8594 l -3.7265,-14.813 h 12.9843 l 3.6368,14.813 h 14.914 l 3.2617,13.015" /><path
         id="path30"
         style="fill:#142239;fill-opacity:1;fill-rule:nonzero;stroke:none"
         d="m 271.398,390.305 h -19.921 l -6.164,-22.336 h 20.515 l 5.57,22.336" /><path
         id="path32"
         style="fill:#142239;fill-opacity:1;fill-rule:nonzero;stroke:none"
         d="m 368.371,318.469 h 28.82 l -7.179,-28.598 H 361.25 Z m 217.297,71.816 H 297.91 l -5.562,-22.316 h 30.242 l -6.613,-26.516 h -30.301 l -7.59,-30.265 h -26.535 l 7.535,30.265 h -21.063 l -14.597,-52.875 h 56.328 l -9.203,-36.539 h 43.308 L 302.953,208.77 h 37.965 l 10.773,43.269 h 43.176 l 9.164,36.539 h 113.614 l -0.133,0.086 h 61.41 l 33.558,48.484 4.348,-48.484 h 61.406 l -58.707,-29.871 4.293,-48.402 -40.59,29.898 -58.726,-29.898 31.48,45.355 c -4.421,-2.32 -9.48,-3.707 -14.429,-3.707 H 423.762 L 420.051,237.34 H 380.605 L 319.762,2.93359 H 438.848 L 476.457,135.105 c 0,0 92.531,0 132.164,0 57.098,0 120.285,42.926 131.754,127.672 18.328,134.536 -154.707,127.508 -154.707,127.508" /><path
         id="path34"
         style="fill:#142239;fill-opacity:1;fill-rule:nonzero;stroke:none"
         d="m 1137.47,2.93359 h 99.8 V 255.984 h -99.8 V 2.93359" /><path
         id="path36"
         style="fill:#142239;fill-opacity:1;fill-rule:nonzero;stroke:none"
         d="m 1749,2.93359 h 99.82 V 254.09 H 1749 V 2.93359" /><path
         id="path38"
         style="fill:#142239;fill-opacity:1;fill-rule:nonzero;stroke:none"
         d="m 1749,290.258 h 99.82 v 89.859 H 1749 v -89.859" /><path
         id="path40"
         style="fill:#142239;fill-opacity:1;fill-rule:nonzero;stroke:none"
         d="M 2390.45,67.8438 V 2.93359 h 99.78 V 67.8438 h -99.78" /><path
         id="path42"
         style="fill:#142239;fill-opacity:1;fill-rule:nonzero;stroke:none"
         d="M 2294.64,377.605 V 264.621 l 95.81,0.234 V 102.586 h 99.78 v 162.269 l 100.86,-0.234 v 114.203 l -296.45,-1.219" /><path
         id="path44"
         style="fill:#142239;fill-opacity:1;fill-rule:nonzero;stroke:none"
         d="m 1605.74,145.004 v 4.047 c 70.96,16.433 70.96,52.851 70.96,115.242 0,93.359 -42.44,111.855 -128.72,113.312 H 880.691 L 624.734,2.93359 H 729.43 L 788.047,98.5742 H 919.688 V 2.93359 h 99.822 V 255.984 h -99.822 v -93.011 h -91.954 l 92.364,128.004 612.312,-0.27 c 32.96,0 41.51,-9.418 41.51,-42.828 0,-42.5 1.44,-58.402 -41.51,-58.402 h -77.31 v 57.691 h -99.85 V 2.93359 h 99.85 V 102.586 h 77.31 c 30.02,0 41.94,-18.9454 40.89,-46.9024 V 2.93359 h 99.82 V 78.6758 c 0,42.4412 -26.48,64.8832 -67.38,66.3282" /><path
         id="path46"
         style="fill:#142239;fill-opacity:1;fill-rule:nonzero;stroke:none"
         d="m 1912.44,191.859 c 0,-27.199 4.31,-89.019 4.31,-89.019 5.81,-61.1173 44.28,-90.3712 98.51,-98.49234 0,0 49.47,-4.34766 74.22,-4.34766 24.77,0 74.21,4.34766 74.21,4.34766 49.45,6.05074 78.22,29.11324 91.09,64.28514 -95.16,12.543 -215.16,187.1992 -339.55,187.1992 -1.24,-21.352 -2.79,-50.633 -2.79,-63.973" /><path
         id="path48"
         style="fill:#142239;fill-opacity:1;fill-rule:nonzero;stroke:none"
         d="m 2262.18,280.887 c -1.2,13.551 -4.57,26.246 -9.87,37.769 -15.28,33.364 -46.67,56.711 -88.62,60.731 0,0 -49.94,4.34 -74.21,4.34 -25.58,0 -74.22,-4.34 -74.22,-4.34 -53.74,-5.086 -89.65,-39.528 -97.35,-88.707 0.79,-0.028 1.59,-0.047 2.38,-0.067 177.42,-7.101 244.5,-180.832 341.89,-187.66 0.17,2.352 4.33,64.871 4.33,88.906 0,26.672 -4.33,89.028 -4.33,89.028" /></g></g></svg>